<?xml version="1.0" encoding="UTF-8"?>
<svg xmlns="http://www.w3.org/2000/svg" width="800.000" height="600.000" viewBox="0.0 0.0 800.000 600.000" version="1.1">
  <title>Produce by Acme CAD Converter</title>
  <desc>Produce by Acme CAD Converter</desc>
<polyline id="box1" points="425.43,211.36 458.16,229.27 447.42,248.91 414.69,231 425.43,211.36" style="fill:none;stroke:cyan;stroke-width:0.5"/>
<polyline id="box2" points="414.69,231 405.73,247.37 438.46,265.28 447.42,248.91 414.69,231" style="fill:none;stroke:cyan;stroke-width:0.5"/>
<polyline id="box3" points="405.73,247.37 396.78,263.73 429.51,281.64 438.46,265.28 405.73,247.37" style="fill:none;stroke:cyan;stroke-width:0.5"/>
<polyline id="box4" points="396.78,263.73 387.82,280.1 420.55,298.01 429.51,281.64 396.78,263.73" style="fill:none;stroke:cyan;stroke-width:0.5"/>
<polyline id="box5" points="387.82,280.1 378.87,296.46 411.6,314.37 420.55,298.01 387.82,280.1" style="fill:none;stroke:cyan;stroke-width:0.5"/>
<polyline id="box6" points="378.87,296.46 369.91,312.83 402.64,330.74 411.6,314.37 378.87,296.46" style="fill:none;stroke:cyan;stroke-width:0.5"/>
<polyline id="box7" points="369.91,312.83 360.96,329.19 393.69,347.1 402.64,330.74 369.91,312.83" style="fill:none;stroke:cyan;stroke-width:0.5"/>
<polyline id="box8" points="360.96,329.19 352,345.55 384.73,363.47 393.69,347.1 360.96,329.19" style="fill:none;stroke:cyan;stroke-width:0.5"/>
<polyline id="box9" points="352,345.55 343.05,361.92 375.78,379.83 384.73,363.47 352,345.55" style="fill:none;stroke:cyan;stroke-width:0.5"/>
<polyline id="box10" points="343.05,361.92 334.09,378.28 366.82,396.19 375.78,379.83 343.05,361.92" style="fill:none;stroke:cyan;stroke-width:0.5"/>
<polyline id="box11" points="334.09,378.28 325.14,394.65 357.86,412.56 366.82,396.19 334.09,378.28" style="fill:none;stroke:cyan;stroke-width:0.5"/>
</svg>
