<?xml version="1.0" encoding="utf-8"?>
<!-- Generator: Adobe Illustrator 24.1.2, SVG Export Plug-In . SVG Version: 6.00 Build 0)  -->
<svg version="1.1" xmlns="http://www.w3.org/2000/svg" xmlns:xlink="http://www.w3.org/1999/xlink" x="0px" y="0px"
	 viewBox="0 0 612 792" style="enable-background:new 0 0 612 792;" xml:space="preserve">
<style type="text/css">
	
		.st0{fill:none;stroke:#999900;stroke-width:0.7087;stroke-linecap:round;stroke-linejoin:round;stroke-miterlimit:10;stroke-dasharray:42.4093,8.4819,8.4819,8.4819;}
	.st1{fill:none;stroke:#5B5B5B;stroke-width:0.7087;stroke-linecap:round;stroke-linejoin:round;stroke-miterlimit:10;}
	.st2{fill-rule:evenodd;clip-rule:evenodd;fill:#5B5B5B;}
	.st3{fill:none;stroke:#000000;stroke-width:0.7087;stroke-linecap:round;stroke-linejoin:round;stroke-miterlimit:10;}
	
		.st4{fill:none;stroke:#808080;stroke-width:0.7087;stroke-linecap:round;stroke-linejoin:round;stroke-miterlimit:10;stroke-dasharray:42.4093,8.4819,8.4819,8.4819;}
	.st5{fill:none;stroke:#808080;stroke-width:0.7087;stroke-linecap:round;stroke-linejoin:round;stroke-miterlimit:10;}
	.st6{fill:#999900;}
	.st7{font-family:'ArialMT';}
	.st8{font-size:2.8299px;}
	.st9{font-size:3.7732px;}
	.st10{font-size:5.6599px;}
	.st11{fill-rule:evenodd;clip-rule:evenodd;fill:none;}
	.st12{fill:none;stroke:#808080;stroke-width:1.000000e-03;stroke-linecap:round;stroke-linejoin:round;stroke-miterlimit:10;}
	.st13{fill:none;stroke:#0000FF;stroke-width:0.7087;stroke-linecap:round;stroke-linejoin:round;stroke-miterlimit:10;}
	.st14{fill:none;stroke:#FF0000;stroke-width:0.7087;stroke-linecap:round;stroke-linejoin:round;stroke-miterlimit:10;}
	.st15{fill:none;stroke:#FF00FF;stroke-width:0.7087;stroke-linecap:round;stroke-linejoin:round;stroke-miterlimit:10;}
	.st16{fill:none;stroke:#FFFF00;stroke-width:0.7087;stroke-linecap:round;stroke-linejoin:round;stroke-miterlimit:10;}
	.st17{fill:none;stroke:#00FF00;stroke-width:0.7087;stroke-linecap:round;stroke-linejoin:round;stroke-miterlimit:10;}
</style>
<g id="_x30_">
	<g id="LWPOLYLINE">
		<line class="st0" x1="262.72" y1="142.53" x2="251.32" y2="163.36"/>
	</g>
	<g id="LWPOLYLINE_1_">
		
			<rect x="7.4" y="545.37" transform="matrix(0.9965 -0.0838 0.0838 0.9965 -46.3975 2.6538)" class="st1" width="2.03" height="17.34"/>
	</g>
	<g id="LWPOLYLINE_2_">
		<polygon class="st1" points="0.12,554.73 4.54,539.86 6.96,568.66 		"/>
	</g>
	<g id="HATCH">
		<path class="st2" d="M0.12,554.73l4.42-14.88l2.42,28.8L0.12,554.73z M6.68,545.48l2.03-0.17l1.45,17.28l-2.03,0.17L6.68,545.48z"
			/>
	</g>
	<g id="LWPOLYLINE_3_">
		<line class="st1" x1="10.15" y1="562.59" x2="8.7" y2="545.31"/>
	</g>
	<g id="LWPOLYLINE_4_">
		<line class="st3" x1="11.93" y1="564.46" x2="10.14" y2="543.17"/>
	</g>
	<g id="LWPOLYLINE_5_">
		<line class="st4" x1="213.34" y1="228.6" x2="462.92" y2="365.18"/>
	</g>
	<g id="LWPOLYLINE_6_">
		<polyline class="st0" points="149.62,107.65 230.23,151.82 559.49,332 600.29,354.32 		"/>
	</g>
	<g id="LWPOLYLINE_7_">
		<path class="st0" d="M168.15,117.8l-51.35,93.83c-37.76,69-60.13,145.36-65.59,223.82c0,0-8.17,117.55-8.17,117.55
			c-2.14-0.07-4.28-0.12-6.41-0.14c-8.54-0.08-17.08,0.23-25.59,0.95"/>
	</g>
	<g id="LWPOLYLINE_8_">
		<path class="st0" d="M249.58,162.36l-51.35,93.83c-31.33,57.25-49.89,120.6-54.42,185.7c0,0-2.67,38.34-2.67,38.34"/>
	</g>
	<g id="LWPOLYLINE_9_">
		<line class="st5" x1="169.9" y1="118.76" x2="169.89" y2="118.79"/>
	</g>
	<g id="LWPOLYLINE_10_">
		<path class="st0" d="M449.23,583.58c-7.83-1.87-15.67-3.7-23.52-5.47c-84.79-21.53-167.73-49.75-248.05-84.41
			c-40.67-17.55-84.21-27.5-128.46-29.36"/>
	</g>
	<g id="LWPOLYLINE_11_">
		<polyline class="st0" points="591.99,322.71 580.59,343.54 404.96,664.48 		"/>
	</g>
	<g id="LWPOLYLINE_12_">
		<line class="st0" x1="479.92" y1="334.12" x2="356.84" y2="559.03"/>
	</g>
	<g id="LWPOLYLINE_13_">
		<line class="st0" x1="384.41" y1="322.22" x2="270.46" y2="530.46"/>
	</g>
	<g id="LWPOLYLINE_14_">
		<line class="st0" x1="344.16" y1="187.09" x2="332.76" y2="207.92"/>
	</g>
	<g id="LWPOLYLINE_15_">
		<path class="st0" d="M435.34,671.6c-10.08-2.45-20.19-4.82-30.31-7.1c-89.75-22.72-177.55-52.56-262.56-89.24
			c-31.46-13.57-65.18-21.12-99.43-22.26"/>
	</g>
	<g id="LWPOLYLINE_16_">
		<path class="st5" d="M451.04,569.15c-2.88,5.26-8.9,7.95-14.74,6.6c0,0-6.48-1.5-6.48-1.5c-1.01-0.23-2.01-0.46-3.02-0.68
			c-16.83-4.27-33.6-8.81-50.29-13.62c-0.76-0.22-1.48-0.52-2.17-0.89c-5.18-2.83-7.08-9.33-4.24-14.5
			c0,0,105.58-192.94,105.58-192.94c0.35-0.65,1.17-0.88,1.81-0.53c0,0,0.59,0.32,0.59,0.32c0.65,0.35,1.46,0.12,1.81-0.53
			c0,0,5.45-9.96,5.45-9.96c0.89-1.62,0.29-3.65-1.33-4.53c0,0-8.2-4.49-8.2-4.49c-1.62-0.89-3.65-0.29-4.53,1.33
			c0,0-5.45,9.96-5.45,9.96c-0.35,0.65-0.12,1.46,0.53,1.81c0,0,0.59,0.32,0.59,0.32c0.65,0.35,0.88,1.17,0.53,1.81
			c0,0-1.28,2.34-1.28,2.34c-2.83,5.18-9.33,7.08-14.5,4.24c0,0-222.63-121.83-222.63-121.83c-5.18-2.83-7.08-9.33-4.24-14.5
			c0,0,19.24-35.15,19.24-35.15c3.54-6.47,11.66-8.85,18.13-5.31c0,0,294.11,160.95,294.11,160.95s2.34,1.28,2.34,1.28
			c7.77,4.25,10.62,13.99,6.37,21.76C565,360.9,451.04,569.15,451.04,569.15z"/>
	</g>
	<g id="LWPOLYLINE_17_">
		<path class="st5" d="M10.59,548.49c4.36-0.37,8.73-0.63,13.1-0.79c8.19-0.3,14.83-6.73,15.4-14.91c0,0,6.79-97.71,6.79-97.71
			c5.51-79.24,28.1-156.34,66.23-226.02c0,0,40.45-73.92,40.45-73.92c4.25-7.76,1.4-17.5-6.36-21.75"/>
	</g>
	<g id="LWPOLYLINE_18_">
		<line class="st5" x1="484.01" y1="336.37" x2="475.81" y2="331.88"/>
	</g>
	<g id="LWPOLYLINE_19_">
		<path class="st5" d="M348.26,189.34l-1.78,3.26c-3.54,6.47-1.17,14.59,5.31,18.13c0,0,213.26,116.7,213.26,116.7
			c7.77,4.25,17.51,1.4,21.76-6.37c0,0,0.5-0.91,0.5-0.91"/>
	</g>
	<g id="LWPOLYLINE_20_">
		<path class="st5" d="M224.57,240.08l144.71,79.19c5.18,2.83,7.08,9.33,4.24,14.5c0,0-100.19,183.09-100.19,183.09
			c-2.54,4.65-8.11,6.73-13.08,4.89c-27.19-10.07-54.12-20.85-80.74-32.34c-8.43-3.64-17-6.96-25.69-9.96
			c-4.57-1.58-7.51-6.02-7.17-10.84c0,0,1.83-26.4,1.83-26.4c4.48-64.43,22.85-127.12,53.85-183.78c0,0,7.72-14.12,7.72-14.12
			C212.9,239.14,219.39,237.24,224.57,240.08z"/>
	</g>
	<g id="LWPOLYLINE_21_">
		<path class="st5" d="M340.06,184.85l-1.78,3.26c-3.54,6.47-11.66,8.85-18.13,5.31c0,0-46.87-25.65-46.87-25.65
			c-7.77-4.25-10.62-13.99-6.37-21.76c0,0,0.5-0.91,0.5-0.91"/>
	</g>
	<g id="LWPOLYLINE_22_">
		<path class="st5" d="M596.67,325.27l-0.5,0.91c-4.25,7.77-1.4,17.51,6.37,21.76c0,0,0.95,0.52,0.95,0.52"/>
	</g>
	<g id="LWPOLYLINE_23_">
		<path class="st5" d="M183.69,133.93l43.33,23.74c0,0,3.52,1.93,3.52,1.93c6.47,3.54,8.85,11.66,5.31,18.13
			c0,0-41.71,76.22-41.71,76.22c-31.65,57.84-50.41,121.84-54.98,187.62c0,0-1.36,19.5-1.36,19.5c-0.04,0.64-0.15,1.27-0.3,1.89
			c-1.45,5.72-7.27,9.18-12.99,7.72c-18.59-4.73-37.53-7.99-56.63-9.76c-7.23-0.67-12.6-6.99-12.09-14.23c0,0,0.76-10.87,0.76-10.87
			c5.4-77.7,27.56-153.3,64.95-221.63c0,0,40.44-73.9,40.44-73.9c0,0,0-0.01,0-0.01C166.19,132.52,175.93,129.68,183.69,133.93z"/>
	</g>
	<g id="LWPOLYLINE_24_">
		<path class="st5" d="M395.06,333.37l52.14,28.53c5.18,2.83,7.08,9.33,4.24,14.5c0,0-92.71,169.41-92.71,169.41
			c-2.44,4.45-7.67,6.58-12.53,5.08c-19.38-5.98-38.65-12.32-57.79-19.02c-0.55-0.19-1.09-0.43-1.6-0.71
			c-5.18-2.83-7.08-9.33-4.24-14.5c0,0,97.98-179.05,97.98-179.05C383.39,332.44,389.88,330.54,395.06,333.37z"/>
	</g>
	<g id="LWPOLYLINE_25_">
		<path class="st5" d="M258.04,139.96l-0.5,0.91c-4.25,7.77-13.99,10.62-21.76,6.37c0,0-2.34-1.28-2.34-1.28
			s-80.61-44.17-80.61-44.17"/>
	</g>
	<g id="LWPOLYLINE_26_">
		<line class="st3" x1="157.87" y1="476.62" x2="150.85" y2="466.03"/>
	</g>
	<g id="LWPOLYLINE_27_">
		<line class="st3" x1="68.46" y1="456.95" x2="61.03" y2="448.24"/>
	</g>
	<g id="LWPOLYLINE_28_">
		<line class="st3" x1="399.01" y1="674" x2="391.22" y2="699.58"/>
	</g>
	<g id="LWPOLYLINE_29_">
		<path class="st3" d="M125.5,466.8c-18.73-4.76-37.8-8.06-57.04-9.85"/>
	</g>
	<g id="LWPOLYLINE_30_">
		<polyline class="st3" points="176.96,137.86 223.81,163.53 229.68,166.74 		"/>
	</g>
	<g id="LWPOLYLINE_31_">
		<path class="st3" d="M167.9,140.51l-41.73,76.25c-37.02,67.65-58.96,142.51-64.3,219.43c0,0-0.84,12.05-0.84,12.05"/>
	</g>
	<g id="LWPOLYLINE_32_">
		<line class="st3" x1="58.72" y1="481.61" x2="54.92" y2="536.24"/>
	</g>
	<g id="LWPOLYLINE_33_">
		<path class="st3" d="M232.33,175.81l-41.71,76.22c-31.93,58.35-50.85,122.91-55.46,189.26c0,0-1.36,19.58-1.36,19.58"/>
	</g>
	<g id="LWPOLYLINE_34_">
		<path class="st3" d="M213.58,246.24l-7.72,14.12c-30.73,56.15-48.93,118.28-53.37,182.13c0,0-1.64,23.54-1.64,23.54"/>
	</g>
	<g id="LWPOLYLINE_35_">
		<path class="st3" d="M426.31,587.14c-0.87-0.2-1.75-0.4-2.62-0.59c-85.27-21.64-168.69-50.02-249.47-84.88
			c-34-14.67-70.09-23.92-106.96-27.4"/>
	</g>
	<g id="LWPOLYLINE_36_">
		<path class="st3" d="M260.17,517.44c-26.63-9.89-52.99-20.46-79.07-31.71c-7.64-3.3-15.38-6.33-23.22-9.11"/>
	</g>
	<g id="LWPOLYLINE_37_">
		<path class="st3" d="M391.81,650.05c-83.7-22.03-165.64-50.31-245.11-84.6c-27.21-11.74-56.09-19.16-85.59-21.98"/>
	</g>
	<g id="LWPOLYLINE_38_">
		<path class="st5" d="M432.84,681.99c-10.08-2.45-20.18-4.82-30.3-7.09c-90.35-22.86-178.73-52.9-264.31-89.82
			c-20.45-8.82-41.94-15.02-63.94-18.43"/>
	</g>
	<g id="LWPOLYLINE_39_">
		<line class="st3" x1="133.8" y1="460.86" x2="125.5" y2="466.8"/>
	</g>
	<g id="LWPOLYLINE_40_">
		<line class="st3" x1="67.26" y1="474.28" x2="58.72" y2="481.61"/>
	</g>
	<g id="LWPOLYLINE_41_">
		<line class="st3" x1="167.9" y1="140.51" x2="176.96" y2="137.86"/>
	</g>
	<g id="LWPOLYLINE_42_">
		<line class="st3" x1="61.11" y1="543.46" x2="54.92" y2="536.24"/>
	</g>
	<g id="LWPOLYLINE_43_">
		<line class="st3" x1="487.53" y1="338.3" x2="472.3" y2="329.96"/>
	</g>
	<g id="LWPOLYLINE_44_">
		<line class="st3" x1="222.64" y1="243.59" x2="213.58" y2="246.24"/>
	</g>
	<g id="LWPOLYLINE_45_">
		<line class="st3" x1="271.54" y1="513.18" x2="260.17" y2="517.44"/>
	</g>
	<g id="LWPOLYLINE_46_">
		<line class="st3" x1="289.35" y1="527.97" x2="285.52" y2="518.23"/>
	</g>
	<g id="LWPOLYLINE_47_">
		<line class="st3" x1="355.81" y1="542.82" x2="346.22" y2="546.71"/>
	</g>
	<g id="LWPOLYLINE_48_">
		<line class="st3" x1="377.96" y1="556.19" x2="373.79" y2="546.15"/>
	</g>
	<g id="LWPOLYLINE_49_">
		<line class="st3" x1="426.31" y1="587.14" x2="430.27" y2="595.97"/>
	</g>
	<g id="LWPOLYLINE_50_">
		<line class="st3" x1="445.98" y1="567.26" x2="436.27" y2="571.61"/>
	</g>
	<g id="LWPOLYLINE_51_">
		<line class="st3" x1="403.41" y1="645.04" x2="391.81" y2="650.05"/>
	</g>
	<g id="LWPOLYLINE_52_">
		<line class="st3" x1="561.59" y1="355.99" x2="558.94" y2="346.92"/>
	</g>
	<g id="LWPOLYLINE_53_">
		<line class="st3" x1="232.33" y1="175.81" x2="229.68" y2="166.74"/>
	</g>
	<g id="LWPOLYLINE_54_">
		<line class="st3" x1="487.53" y1="338.3" x2="373.79" y2="546.15"/>
	</g>
	<g id="LWPOLYLINE_55_">
		<path class="st3" d="M346.22,546.71c-19.07-5.9-38.03-12.15-56.87-18.75"/>
	</g>
	<g id="LWPOLYLINE_56_">
		<path class="st3" d="M436.27,571.61c-2.84-0.66-5.69-1.3-8.53-1.95c-16.66-4.23-33.26-8.72-49.78-13.48"/>
	</g>
	<g id="LWPOLYLINE_57_">
		<line class="st3" x1="430.27" y1="595.97" x2="403.41" y2="645.04"/>
	</g>
	<g id="LWPOLYLINE_58_">
		<line class="st3" x1="561.59" y1="355.99" x2="445.98" y2="567.26"/>
	</g>
	<g id="LINE">
		<line class="st3" x1="383.48" y1="339.22" x2="285.52" y2="518.23"/>
	</g>
	<g id="LINE_1_">
		<line class="st3" x1="392.55" y1="336.57" x2="383.48" y2="339.22"/>
	</g>
	<g id="LINE_2_">
		<line class="st3" x1="445.28" y1="365.42" x2="392.55" y2="336.57"/>
	</g>
	<g id="LINE_3_">
		<line class="st3" x1="447.93" y1="374.49" x2="445.28" y2="365.42"/>
	</g>
	<g id="LINE_4_">
		<line class="st3" x1="355.81" y1="542.82" x2="447.93" y2="374.49"/>
	</g>
	<g id="LINE_5_">
		<line class="st3" x1="370.59" y1="332.17" x2="271.54" y2="513.18"/>
	</g>
	<g id="LINE_6_">
		<line class="st3" x1="367.94" y1="323.1" x2="370.59" y2="332.17"/>
	</g>
	<g id="LINE_7_">
		<line class="st3" x1="222.64" y1="243.59" x2="367.94" y2="323.1"/>
	</g>
	<g id="LINE_8_">
		<line class="st3" x1="553.08" y1="343.72" x2="558.94" y2="346.92"/>
	</g>
	<g id="LINE_9_">
		<line class="st3" x1="257.8" y1="182.13" x2="553.08" y2="343.72"/>
	</g>
	<g id="LINE_10_">
		<line class="st3" x1="246.92" y1="185.31" x2="257.8" y2="182.13"/>
	</g>
	<g id="LINE_11_">
		<line class="st3" x1="228.97" y1="218.12" x2="246.92" y2="185.31"/>
	</g>
	<g id="LINE_12_">
		<line class="st3" x1="452.44" y1="349.55" x2="232.15" y2="229"/>
	</g>
	<g id="LINE_13_">
		<line class="st3" x1="463.32" y1="346.37" x2="452.44" y2="349.55"/>
	</g>
	<g id="LINE_14_">
		<line class="st3" x1="472.3" y1="329.96" x2="463.32" y2="346.37"/>
	</g>
	<g id="LWPOLYLINE_59_">
		<path class="st5" d="M11.49,559.14c44.03-3.7,88.29,3.52,128.86,21.02c85.29,36.8,173.38,66.74,263.43,89.53
			c10.12,2.28,20.22,4.64,30.31,7.1"/>
	</g>
	<g id="LWPOLYLINE_60_">
		<path class="st5" d="M144.58,570.35c79.61,34.35,161.68,62.69,245.53,84.78c7.12,1.88,14.61-1.34,18.14-7.81
			c0,0,24.8-45.32,24.8-45.32c3.54-6.47,1.17-14.59-5.31-18.13c-1.03-0.56-2.13-0.99-3.28-1.27c-0.62-0.15-1.25-0.3-1.87-0.46
			c-84.35-21.52-166.87-49.66-246.8-84.15c-34.31-14.81-70.73-24.15-107.93-27.68c-7.34-0.7-13.86,4.69-14.56,12.03
			c-0.01,0.11-0.02,0.23-0.03,0.34c0,0-3.44,49.41-3.44,49.41c-0.6,8.59,5.7,16.12,14.26,17.05
			C91.84,552.15,118.97,559.3,144.58,570.35z"/>
	</g>
	<g id="LWPOLYLINE_61_">
		<path class="st5" d="M206.76,368.21l-7.49,81.94c0,0-7.05,22.56-7.05,22.56c-0.76,2.44,0.31,5.08,2.56,6.3
			c0,0,19.48,10.51,19.48,10.51c1.59,0.86,3.42,1.15,5.2,0.84c0,0,17.74-3.13,17.74-3.13c1.9-0.33,3.47-1.67,4.11-3.49
			c0,0,14.01-39.85,14.01-39.85s15.81-24.5,15.81-24.5c1.41-2.19,1.67-4.93,0.7-7.35c0,0-7.24-17.94-7.24-17.94
			s0.54-26.45,0.54-26.45c0.07-3.33-1.93-6.35-5.01-7.6c0,0-28.07-11.33-28.07-11.33c-3.05-1.23-6.55-0.47-8.81,1.91
			c0,0-16.44,17.31-16.44,17.31S206.76,368.21,206.76,368.21"/>
	</g>
	<g id="LWPOLYLINE_62_">
		<polygon class="st3" points="488.63,308.45 418.32,269.97 405.5,293.41 472.3,329.96 472.3,329.95 475.81,331.87 		"/>
	</g>
	<g id="LWPOLYLINE_63_">
		<polygon class="st3" points="472.3,329.96 405.5,293.41 392.67,316.84 452.44,349.55 463.32,346.37 		"/>
	</g>
	<g id="LWPOLYLINE_64_">
		
			<rect x="351.68" y="207.95" transform="matrix(0.4801 -0.8772 0.8772 0.4801 -34.807 453.3568)" class="st3" width="26.71" height="96.17"/>
	</g>
	<g id="LWPOLYLINE_65_">
		
			<rect x="338.86" y="231.39" transform="matrix(0.4801 -0.8772 0.8772 0.4801 -62.0332 454.2918)" class="st3" width="26.71" height="96.17"/>
	</g>
	<g id="LWPOLYLINE_66_">
		<polygon class="st3" points="324.58,218.67 257.8,182.13 246.92,185.31 237.95,201.72 311.76,242.11 		"/>
	</g>
	<g id="LWPOLYLINE_67_">
		<polygon class="st3" points="311.76,242.11 237.95,201.72 228.97,218.12 232.15,229 298.93,265.54 		"/>
	</g>
	<g id="LWPOLYLINE_68_">
		<line class="st3" x1="278.14" y1="570.74" x2="287.11" y2="545.57"/>
	</g>
	<g id="LWPOLYLINE_69_">
		<line class="st3" x1="197.92" y1="557.84" x2="188.76" y2="582.94"/>
	</g>
	<g id="LWPOLYLINE_70_">
		<line class="st3" x1="148.54" y1="537.3" x2="139.38" y2="562.41"/>
	</g>
	<g id="LWPOLYLINE_71_">
		<line class="st3" x1="210.34" y1="562.76" x2="201.18" y2="587.86"/>
	</g>
	<g id="LWPOLYLINE_72_">
		<line class="st3" x1="222.8" y1="567.59" x2="213.64" y2="592.69"/>
	</g>
	<g id="LWPOLYLINE_73_">
		<line class="st3" x1="393.13" y1="606.17" x2="402.13" y2="580.93"/>
	</g>
	<g id="LWPOLYLINE_74_">
		<line class="st3" x1="354.48" y1="595.26" x2="363.47" y2="570.06"/>
	</g>
	<g id="LINE_15_">
		<line class="st3" x1="134.91" y1="532.27" x2="126.86" y2="557.75"/>
	</g>
	<g id="LWPOLYLINE_75_">
		<line class="st3" x1="380.21" y1="602.63" x2="389.21" y2="577.41"/>
	</g>
	<g id="LINE_16_">
		<line class="st3" x1="330.32" y1="632.65" x2="338.26" y2="607.14"/>
	</g>
	<g id="LWPOLYLINE_76_">
		<line class="st3" x1="367.33" y1="599" x2="376.32" y2="573.78"/>
	</g>
	<g id="LINE_17_">
		<line class="st3" x1="381.7" y1="647.36" x2="389.65" y2="621.83"/>
	</g>
	<g id="LINE_18_">
		<line class="st3" x1="107.71" y1="524.31" x2="102.01" y2="550.42"/>
	</g>
	<g id="LWPOLYLINE_77_">
		<line class="st3" x1="235.29" y1="572.32" x2="226.14" y2="597.42"/>
	</g>
	<g id="LWPOLYLINE_78_">
		<line class="st3" x1="303.44" y1="579.31" x2="312.42" y2="554.14"/>
	</g>
	<g id="LINE_19_">
		<line class="st3" x1="304.81" y1="624.7" x2="312.76" y2="599.19"/>
	</g>
	<g id="LINE_20_">
		<line class="st3" x1="93.87" y1="521.27" x2="89.37" y2="547.61"/>
	</g>
	<g id="LINE_21_">
		<line class="st3" x1="355.94" y1="640.2" x2="363.89" y2="614.69"/>
	</g>
	<g id="LINE_22_">
		<line class="st3" x1="504.55" y1="362.83" x2="481.11" y2="350"/>
	</g>
	<g id="LINE_23_">
		<line class="st3" x1="266.78" y1="612.04" x2="274.73" y2="586.52"/>
	</g>
	<g id="LINE_24_">
		<line class="st3" x1="279.43" y1="616.36" x2="287.38" y2="590.85"/>
	</g>
	<g id="LINE_25_">
		<line class="st3" x1="317.55" y1="628.72" x2="325.49" y2="603.22"/>
	</g>
	<g id="LINE_26_">
		<line class="st3" x1="343.12" y1="636.47" x2="351.06" y2="610.96"/>
	</g>
	<g id="LWPOLYLINE_79_">
		<line class="st3" x1="101.54" y1="600.11" x2="105.67" y2="573.49"/>
	</g>
	<g id="LWPOLYLINE_80_">
		<line class="st3" x1="70.2" y1="593.04" x2="74.29" y2="566.64"/>
	</g>
	<g id="LWPOLYLINE_81_">
		<line class="st3" x1="85.95" y1="596.04" x2="90.05" y2="569.58"/>
	</g>
	<g id="LINE_27_">
		<line class="st3" x1="74.29" y1="566.64" x2="70.2" y2="593.04"/>
	</g>
	<g id="LINE_28_">
		<line class="st3" x1="216.09" y1="616.47" x2="205.96" y2="641.2"/>
	</g>
	<g id="LINE_29_">
		<line class="st3" x1="201.1" y1="610.76" x2="190.98" y2="635.49"/>
	</g>
	<g id="LINE_30_">
		<line class="st3" x1="186.18" y1="604.92" x2="176.05" y2="629.64"/>
	</g>
	<g id="LINE_31_">
		<line class="st3" x1="126.9" y1="580.49" x2="116.77" y2="605.22"/>
	</g>
	<g id="LINE_32_">
		<line class="st3" x1="141.73" y1="586.57" x2="131.6" y2="611.3"/>
	</g>
	<g id="LINE_33_">
		<line class="st3" x1="156.49" y1="592.82" x2="146.36" y2="617.55"/>
	</g>
	<g id="LINE_34_">
		<line class="st3" x1="171.31" y1="598.94" x2="161.18" y2="623.66"/>
	</g>
	<g id="LINE_35_">
		<line class="st3" x1="260.82" y1="632.59" x2="253.03" y2="658.16"/>
	</g>
	<g id="LINE_36_">
		<line class="st3" x1="276.01" y1="637.75" x2="268.22" y2="663.32"/>
	</g>
	<g id="LINE_37_">
		<line class="st3" x1="291.23" y1="642.78" x2="283.45" y2="668.34"/>
	</g>
	<g id="LINE_38_">
		<line class="st3" x1="383.49" y1="669.96" x2="375.7" y2="695.53"/>
	</g>
	<g id="LINE_39_">
		<line class="st3" x1="368" y1="665.78" x2="360.22" y2="691.34"/>
	</g>
	<g id="LINE_40_">
		<line class="st3" x1="352.56" y1="661.46" x2="344.78" y2="687.02"/>
	</g>
	<g id="LINE_41_">
		<line class="st3" x1="337.17" y1="657" x2="329.38" y2="682.56"/>
	</g>
	<g id="LINE_42_">
		<line class="st3" x1="321.81" y1="652.4" x2="314.03" y2="677.95"/>
	</g>
	<g id="LINE_43_">
		<line class="st3" x1="306.62" y1="647.69" x2="298.6" y2="673.18"/>
	</g>
	<g id="LWPOLYLINE_82_">
		<line class="st3" x1="173.19" y1="547.69" x2="164.02" y2="572.81"/>
	</g>
	<g id="LWPOLYLINE_83_">
		<line class="st3" x1="160.88" y1="542.46" x2="151.7" y2="567.6"/>
	</g>
	<g id="LWPOLYLINE_84_">
		<line class="st3" x1="341.67" y1="591.42" x2="350.65" y2="566.23"/>
	</g>
	<g id="LWPOLYLINE_85_">
		<line class="st3" x1="406.09" y1="609.61" x2="415.1" y2="584.35"/>
	</g>
	<g id="LWPOLYLINE_86_">
		<line class="st3" x1="328.89" y1="587.48" x2="337.87" y2="562.3"/>
	</g>
	<g id="LWPOLYLINE_87_">
		<line class="st3" x1="290.77" y1="575.07" x2="299.75" y2="549.91"/>
	</g>
	<g id="LINE_44_">
		<line class="st3" x1="292.1" y1="620.58" x2="300.05" y2="595.07"/>
	</g>
	<g id="LINE_45_">
		<line class="st3" x1="79.9" y1="518.86" x2="76.61" y2="545.38"/>
	</g>
	<g id="LINE_46_">
		<line class="st3" x1="121.4" y1="527.98" x2="114.52" y2="553.8"/>
	</g>
	<g id="LWPOLYLINE_88_">
		<line class="st3" x1="316.15" y1="583.45" x2="325.13" y2="558.27"/>
	</g>
	<g id="LINE_47_">
		<line class="st3" x1="368.8" y1="643.83" x2="376.75" y2="618.31"/>
	</g>
	<g id="LWPOLYLINE_89_">
		<line class="st3" x1="185.54" y1="552.81" x2="176.37" y2="577.93"/>
	</g>
	<g id="LINE_48_">
		<line class="st3" x1="89.33" y1="504.14" x2="95.08" y2="478.02"/>
	</g>
	<g id="LINE_49_">
		<line class="st3" x1="76.09" y1="502.14" x2="81.86" y2="475.96"/>
	</g>
	<g id="LINE_50_">
		<line class="st3" x1="102.45" y1="506.67" x2="108.2" y2="480.58"/>
	</g>
	<g id="LINE_51_">
		<line class="st3" x1="115.46" y1="509.73" x2="121.2" y2="483.62"/>
	</g>
	<g id="LINE_52_">
		<line class="st3" x1="215.41" y1="547.53" x2="224.78" y2="522.51"/>
	</g>
	<g id="LINE_53_">
		<line class="st3" x1="128.37" y1="513.33" x2="137.76" y2="488.26"/>
	</g>
	<g id="LINE_54_">
		<line class="st3" x1="153.62" y1="522.08" x2="162.99" y2="497.06"/>
	</g>
	<g id="LINE_55_">
		<line class="st3" x1="165.96" y1="527.2" x2="175.34" y2="502.16"/>
	</g>
	<g id="LINE_56_">
		<line class="st3" x1="178.27" y1="532.43" x2="187.65" y2="507.4"/>
	</g>
	<g id="LINE_57_">
		<line class="st3" x1="141.09" y1="517.45" x2="150.46" y2="492.42"/>
	</g>
	<g id="LINE_58_">
		<line class="st3" x1="190.61" y1="537.56" x2="199.99" y2="512.53"/>
	</g>
	<g id="LINE_59_">
		<line class="st3" x1="202.99" y1="542.6" x2="212.36" y2="517.57"/>
	</g>
	<g id="LINE_60_">
		<line class="st3" x1="215.41" y1="547.53" x2="224.78" y2="522.51"/>
	</g>
	<g id="LINE_61_">
		<line class="st3" x1="227.86" y1="552.36" x2="237.23" y2="527.34"/>
	</g>
	<g id="LINE_62_">
		<line class="st3" x1="424.21" y1="417.84" x2="400.77" y2="405.01"/>
	</g>
	<g id="LINE_63_">
		<line class="st3" x1="379.32" y1="499.86" x2="355.89" y2="487.03"/>
	</g>
	<g id="LINE_64_">
		<line class="st3" x1="337.66" y1="478.58" x2="314.24" y2="465.76"/>
	</g>
	<g id="LINE_65_">
		<line class="st3" x1="318.43" y1="513.74" x2="295" y2="500.92"/>
	</g>
	<g id="LINE_66_">
		<line class="st3" x1="481.6" y1="304.6" x2="468.78" y2="328.03"/>
	</g>
	<g id="LINE_67_">
		<line class="st3" x1="441.72" y1="477.66" x2="418.28" y2="464.84"/>
	</g>
	<g id="LINE_68_">
		<line class="st3" x1="527.61" y1="418.08" x2="504.18" y2="405.26"/>
	</g>
	<g id="LINE_69_">
		<line class="st3" x1="366.5" y1="523.29" x2="343.06" y2="510.47"/>
	</g>
	<g id="LINE_70_">
		<line class="st3" x1="372.91" y1="511.58" x2="349.48" y2="498.75"/>
	</g>
	<g id="LINE_71_">
		<line class="st3" x1="360.09" y1="535.01" x2="336.65" y2="522.19"/>
	</g>
	<g id="LINE_72_">
		<line class="st3" x1="398.56" y1="464.71" x2="375.12" y2="451.88"/>
	</g>
	<g id="LINE_73_">
		<line class="st3" x1="385.73" y1="488.14" x2="362.3" y2="475.32"/>
	</g>
	<g id="LINE_74_">
		<line class="st3" x1="411.38" y1="441.27" x2="387.95" y2="428.45"/>
	</g>
	<g id="LINE_75_">
		<line class="st3" x1="392.15" y1="476.42" x2="368.71" y2="463.6"/>
	</g>
	<g id="LINE_76_">
		<line class="st3" x1="417.8" y1="429.55" x2="394.36" y2="416.73"/>
	</g>
	<g id="LINE_77_">
		<line class="st3" x1="437.03" y1="394.4" x2="413.6" y2="381.58"/>
	</g>
	<g id="LINE_78_">
		<line class="st3" x1="443.44" y1="382.68" x2="420.01" y2="369.86"/>
	</g>
	<g id="LINE_79_">
		<line class="st3" x1="388.97" y1="384.85" x2="365.53" y2="372.02"/>
	</g>
	<g id="LINE_80_">
		<line class="st3" x1="324.85" y1="502.02" x2="301.41" y2="489.2"/>
	</g>
	<g id="LINE_81_">
		<line class="st3" x1="356.91" y1="443.44" x2="333.47" y2="430.61"/>
	</g>
	<g id="LINE_82_">
		<line class="st3" x1="344.08" y1="466.87" x2="320.65" y2="454.05"/>
	</g>
	<g id="LINE_83_">
		<line class="st3" x1="369.73" y1="420" x2="346.3" y2="407.18"/>
	</g>
	<g id="LINE_84_">
		<line class="st3" x1="401.79" y1="361.41" x2="378.36" y2="348.59"/>
	</g>
	<g id="LINE_85_">
		<line class="st3" x1="376.14" y1="408.28" x2="352.71" y2="395.46"/>
	</g>
	<g id="LINE_86_">
		<line class="st3" x1="404.97" y1="452.99" x2="381.54" y2="440.16"/>
	</g>
	<g id="LINE_87_">
		<line class="st3" x1="430.62" y1="406.12" x2="407.19" y2="393.29"/>
	</g>
	<g id="LINE_88_">
		<line class="st3" x1="331.26" y1="490.31" x2="307.82" y2="477.48"/>
	</g>
	<g id="LINE_89_">
		<line class="st3" x1="350.49" y1="455.15" x2="327.06" y2="442.33"/>
	</g>
	<g id="LINE_90_">
		<line class="st3" x1="363.32" y1="431.72" x2="339.88" y2="418.89"/>
	</g>
	<g id="LINE_91_">
		<line class="st3" x1="382.56" y1="396.57" x2="359.12" y2="383.74"/>
	</g>
	<g id="LINE_92_">
		<line class="st3" x1="395.38" y1="373.13" x2="371.94" y2="360.31"/>
	</g>
	<g id="LINE_93_">
		<line class="st3" x1="428.89" y1="501.1" x2="405.46" y2="488.27"/>
	</g>
	<g id="LINE_94_">
		<line class="st3" x1="435.3" y1="489.38" x2="411.87" y2="476.56"/>
	</g>
	<g id="LINE_95_">
		<line class="st3" x1="540.44" y1="394.65" x2="517" y2="381.82"/>
	</g>
	<g id="LINE_96_">
		<line class="st3" x1="486.6" y1="395.64" x2="463.17" y2="382.82"/>
	</g>
	<g id="LINE_97_">
		<line class="st3" x1="409.65" y1="536.25" x2="386.22" y2="523.43"/>
	</g>
	<g id="LINE_98_">
		<line class="st3" x1="489.14" y1="488.39" x2="465.7" y2="475.57"/>
	</g>
	<g id="LINE_99_">
		<line class="st3" x1="448.13" y1="465.95" x2="424.69" y2="453.12"/>
	</g>
	<g id="LINE_100_">
		<line class="st3" x1="501.96" y1="464.95" x2="478.53" y2="452.13"/>
	</g>
	<g id="LINE_101_">
		<line class="st3" x1="480.19" y1="407.36" x2="456.75" y2="394.53"/>
	</g>
	<g id="LINE_102_">
		<line class="st3" x1="460.95" y1="442.51" x2="437.52" y2="429.69"/>
	</g>
	<g id="LINE_103_">
		<line class="st3" x1="495.55" y1="476.67" x2="472.12" y2="463.85"/>
	</g>
	<g id="LINE_104_">
		<line class="st3" x1="422.48" y1="512.82" x2="399.04" y2="499.99"/>
	</g>
	<g id="LINE_105_">
		<line class="st3" x1="416.07" y1="524.53" x2="392.63" y2="511.71"/>
	</g>
	<g id="LINE_106_">
		<line class="st3" x1="469.9" y1="523.54" x2="446.47" y2="510.72"/>
	</g>
	<g id="LINE_107_">
		<line class="st3" x1="454.54" y1="454.23" x2="431.1" y2="441.4"/>
	</g>
	<g id="LINE_108_">
		<line class="st3" x1="467.36" y1="430.79" x2="443.93" y2="417.97"/>
	</g>
	<g id="LINE_109_">
		<line class="st3" x1="450.67" y1="558.69" x2="427.23" y2="545.87"/>
	</g>
	<g id="LINE_110_">
		<line class="st3" x1="521.2" y1="429.8" x2="497.76" y2="416.98"/>
	</g>
	<g id="LINE_111_">
		<line class="st3" x1="240.35" y1="557.1" x2="249.72" y2="532.08"/>
	</g>
	<g id="LINE_112_">
		<line class="st3" x1="482.73" y1="500.11" x2="459.29" y2="487.28"/>
	</g>
	<g id="LINE_113_">
		<line class="st3" x1="473.78" y1="419.08" x2="450.34" y2="406.25"/>
	</g>
	<g id="LINE_114_">
		<line class="st3" x1="457.08" y1="546.98" x2="433.64" y2="534.15"/>
	</g>
	<g id="LINE_115_">
		<line class="st3" x1="553.26" y1="371.21" x2="529.83" y2="358.39"/>
	</g>
	<g id="LINE_116_">
		<line class="st3" x1="403.24" y1="547.97" x2="379.81" y2="535.15"/>
	</g>
	<g id="LINE_117_">
		<line class="st3" x1="476.31" y1="511.82" x2="452.88" y2="499"/>
	</g>
	<g id="LINE_118_">
		<line class="st3" x1="508.38" y1="453.24" x2="484.94" y2="440.41"/>
	</g>
	<g id="LINE_119_">
		<line class="st3" x1="534.02" y1="406.37" x2="510.59" y2="393.54"/>
	</g>
	<g id="LINE_120_">
		<line class="st3" x1="546.85" y1="382.93" x2="523.41" y2="370.11"/>
	</g>
	<g id="LINE_121_">
		<line class="st3" x1="463.49" y1="535.26" x2="440.06" y2="522.44"/>
	</g>
	<g id="LINE_122_">
		<line class="st3" x1="514.79" y1="441.52" x2="491.35" y2="428.69"/>
	</g>
	<g id="LINE_123_">
		<line class="st3" x1="501.59" y1="345.99" x2="514.41" y2="322.56"/>
	</g>
	<g id="LINE_124_">
		<line class="st3" x1="494.56" y1="342.14" x2="507.38" y2="318.71"/>
	</g>
	<g id="LINE_125_">
		<line class="st3" x1="434.86" y1="339.93" x2="460.51" y2="293.06"/>
	</g>
	<g id="LINE_126_">
		<line class="st3" x1="441.89" y1="343.77" x2="467.54" y2="296.9"/>
	</g>
	<g id="LINE_127_">
		<line class="st3" x1="487.53" y1="338.3" x2="500.35" y2="314.86"/>
	</g>
	<g id="LINE_128_">
		<line class="st3" x1="461.74" y1="324.19" x2="474.57" y2="300.75"/>
	</g>
	<g id="LINE_129_">
		<line class="st3" x1="399.7" y1="320.69" x2="425.35" y2="273.82"/>
	</g>
	<g id="LINE_130_">
		<line class="st3" x1="420.8" y1="332.23" x2="446.45" y2="285.36"/>
	</g>
	<g id="LINE_131_">
		<line class="st3" x1="413.77" y1="328.38" x2="439.41" y2="281.51"/>
	</g>
	<g id="LINE_132_">
		<line class="st3" x1="406.74" y1="324.54" x2="432.38" y2="277.67"/>
	</g>
	<g id="LINE_133_">
		<line class="st3" x1="427.83" y1="336.08" x2="453.48" y2="289.21"/>
	</g>
	<g id="LINE_134_">
		<line class="st3" x1="303.62" y1="268.11" x2="329.27" y2="221.24"/>
	</g>
	<g id="LINE_135_">
		<line class="st3" x1="298.93" y1="265.54" x2="324.58" y2="218.67"/>
	</g>
	<g id="TEXT">
		<text transform="matrix(0.4801 -0.8772 0.8772 0.4801 383.6808 514.0207)" class="st6 st7 st8">ĐƯỜNG D18-Z2-K3</text>
	</g>
	<g id="TEXT_1_">
		<text transform="matrix(0.8772 0.4801 -0.4801 0.8772 260.5059 256.6239)" class="st6 st7 st8">ĐƯỜNG N14-Z2-K3</text>
	</g>
	<g id="TEXT_2_">
		<text transform="matrix(0.4801 -0.8772 0.8772 0.4801 302.5917 476.7873)" class="st6 st7 st8">ĐƯỜNG D17-Z2-K3</text>
	</g>
	<g id="TEXT_3_">
		<text transform="matrix(0.9496 0.3136 -0.3136 0.9496 295.8724 541.9482)" class="st6 st7 st8">ĐƯỜNG N15-Z2-K3</text>
	</g>
	<g id="TEXT_4_">
		<text transform="matrix(0.8833 0.4689 -0.4689 0.8833 487.3258 293.9109)" class="st6 st7 st9">ĐƯỜNG N2-Z2</text>
	</g>
	<g id="TEXT_5_">
		<text transform="matrix(0.9696 0.2446 -0.2446 0.9696 401.2169 667.749)" class="st6 st7 st9">ĐƯỜNG D10-Z2</text>
	</g>
	<g id="TEXT_6_">
		<text transform="matrix(0.2175 -0.9761 0.9761 0.2175 60.8942 373.0934)" class="st6 st7 st9">ĐƯỜNG D10-Z2</text>
	</g>
	<g id="TEXT_7_">
		<text transform="matrix(0.4801 -0.8772 0.8772 0.4801 463.8627 560.7131)" class="st6 st7 st9">ĐƯỜNG D8-Z2</text>
	</g>
	<g id="LWPOLYLINE_90_">
		<line class="st3" x1="475.81" y1="331.88" x2="488.64" y2="308.45"/>
	</g>
	<g id="LWPOLYLINE_91_">
		<line class="st3" x1="392.67" y1="316.84" x2="418.32" y2="269.97"/>
	</g>
	<g id="LWPOLYLINE_92_">
		<line class="st3" x1="303.62" y1="268.11" x2="329.27" y2="221.24"/>
	</g>
	<g id="LWPOLYLINE_93_">
		<line class="st3" x1="298.93" y1="265.54" x2="324.58" y2="218.67"/>
	</g>
	<g id="LWPOLYLINE_94_">
		<path class="st3" d="M194.53,147.49l-17.57-9.63c0,0-9.06,2.65-9.06,2.65s-41.73,76.25-41.73,76.25
			c-11.7,21.37-21.92,43.52-30.59,66.29c0,0,24.96,9.51,24.96,9.51c8.24-21.63,17.95-42.67,29.06-62.98
			C149.61,229.58,194.53,147.49,194.53,147.49z"/>
	</g>
	<g id="LWPOLYLINE_95_">
		<path class="st3" d="M162.61,313.54l-25.06-9.26c-16.05,43.44-25.83,88.95-29.04,135.15c0,0-1.55,22.24-1.55,22.24
			s23.42,1.63,23.42,1.63s3.42-2.44,3.42-2.44s1.36-19.58,1.36-19.58C138.2,397.62,147.44,354.6,162.61,313.54z"/>
	</g>
	<g id="LWPOLYLINE_96_">
		<path class="st3" d="M117.97,299.47l-25.9-6.94c-16.63,46.27-26.79,94.61-30.2,143.66c0,0-0.84,12.05-0.84,12.05
			s5.99,7.02,5.99,7.02s20.13,2.38,20.13,2.38s1.36-19.6,1.36-19.6C91.81,390.7,101.73,344.06,117.97,299.47z"/>
	</g>
	<g id="LWPOLYLINE_97_">
		<path class="st3" d="M243.16,626.39l-7.79,25.58c51.2,18.24,103.2,34.12,155.85,47.6c0,0,7.79-25.58,7.79-25.58
			C346.35,660.56,294.35,644.67,243.16,626.39z"/>
	</g>
	<g id="LWPOLYLINE_98_">
		<path class="st3" d="M233.64,622.96c-32.16-11.7-63.98-24.33-95.4-37.89c-26.21-11.31-54.08-18.28-82.53-20.63
			c0,0-4.1,26.47-4.1,26.47c26.21,1.96,51.91,8.28,76.05,18.69c31.58,13.62,63.54,26.33,95.85,38.1
			C223.5,647.7,233.64,622.96,233.64,622.96z"/>
	</g>
	<g id="LWPOLYLINE_99_">
		<path class="st3" d="M274.51,541.14l-8.97,25.16c49.89,17.78,100.58,33.21,151.92,46.23c0.2,0.05,0.41,0.09,0.61,0.14
			c0,0,10.82-19.77,10.82-19.77s-2.59-5.76-2.59-5.76c-0.87-0.2-1.75-0.4-2.62-0.59C373.28,573.76,323.5,558.6,274.51,541.14z"/>
	</g>
	<g id="LWPOLYLINE_100_">
		<path class="st3" d="M174.22,501.67c-34-14.67-70.09-23.92-106.96-27.4c0,0-5.7,4.89-5.7,4.89s-1.48,21.29-1.48,21.29
			c35.7,2.85,70.68,11.55,103.56,25.74c29.4,12.69,59.16,24.54,89.24,35.53c0,0,9.37-25.02,9.37-25.02
			C232.58,525.87,203.22,514.19,174.22,501.67z"/>
	</g>
	<g id="LWPOLYLINE_101_">
		<polygon class="st3" points="447.93,374.49 445.28,365.42 427.7,355.8 328.54,537.01 346.25,546.7 355.81,542.82 		"/>
	</g>
	<g id="LWPOLYLINE_102_">
		<polygon class="st3" points="410.12,346.19 392.55,336.57 383.48,339.22 285.52,518.23 308.96,531.05 		"/>
	</g>
	<g id="LWPOLYLINE_103_">
		<path class="st3" d="M259.6,581.2l-7.95,25.53c46.09,16.42,92.85,30.87,140.16,43.32c0,0,7.6-3.28,7.6-3.28
			s10.71-19.57,10.71-19.57C359.27,614.2,309.04,598.85,259.6,581.2z"/>
	</g>
	<g id="LWPOLYLINE_104_">
		<polygon class="st3" points="560.96,357.15 553.92,353.3 537.52,344.33 418.53,561.77 436.41,571.55 445.98,567.26 		"/>
	</g>
	<g id="LWPOLYLINE_105_">
		<polygon class="st3" points="493.01,383.92 469.58,371.1 373.79,546.15 375.1,549.32 396.19,560.86 		"/>
	</g>
	<g id="LWPOLYLINE_106_">
		
			<rect x="477.5" y="344.24" transform="matrix(0.4801 -0.8772 0.8772 0.4801 -57.7808 617.704)" class="st3" width="29.38" height="26.71"/>
	</g>
	<g id="LWPOLYLINE_107_">
		<path class="st3" d="M157.28,540.92c-31.22-13.47-64.43-21.73-98.32-24.46c0,0-1.58,22.67-1.58,22.67s3.72,4.34,3.72,4.34
			c29.5,2.83,58.38,10.24,85.59,21.98c31.12,13.43,62.62,25.94,94.47,37.51c0,0,9.16-25.1,9.16-25.1
			C218.96,566.46,187.93,554.14,157.28,540.92z"/>
	</g>
	<g id="LWPOLYLINE_108_">
		<path class="st3" d="M229.29,273.18l10.93-19.98c0,0-17.58-9.62-17.58-9.62s-9.06,2.65-9.06,2.65s-7.72,14.12-7.72,14.12
			c-8.99,16.43-16.94,33.42-23.78,50.86c0,0,24.16,11.56,24.16,11.56C212.83,305.77,220.53,289.2,229.29,273.18z"/>
	</g>
	<g id="LWPOLYLINE_109_">
		<path class="st3" d="M179.13,444.34c2.73-39.24,11-77.89,24.56-114.81c0,0-26.02-6.62-26.02-6.62
			c-13.88,38.51-22.35,78.75-25.19,119.58c0,0-1.64,23.54-1.64,23.54s7.03,10.59,7.03,10.59c6.24,2.21,12.41,4.58,18.52,7.12
			C176.39,483.74,179.13,444.34,179.13,444.34z"/>
	</g>
	<g id="LWPOLYLINE_110_">
		<polygon class="st3" points="370.59,332.17 367.94,323.1 350.37,313.48 245.21,505.65 264.09,515.98 271.54,513.18 		"/>
	</g>
	<g id="LWPOLYLINE_111_">
		<polygon class="st3" points="510.96,351.12 523.78,327.68 493.32,311.01 480.5,334.44 487.53,338.29 		"/>
	</g>
	<g id="LWPOLYLINE_112_">
		<path class="st3" d="M232.33,175.81l-2.65-9.06c0,0-5.87-3.21-5.87-3.21s-11.71-6.42-11.71-6.42s-44.92,82.08-44.92,82.08
			c-10.06,18.38-18.92,37.38-26.53,56.9c0,0,24.89,9.71,24.89,9.71c7.19-18.45,15.57-36.41,25.08-53.78
			C190.62,252.02,232.33,175.81,232.33,175.81z"/>
	</g>
	<g id="TEXT_8_">
		<text transform="matrix(1 0 0 1 387.264 679.55)" class="st7 st10">1</text>
	</g>
	<g id="TEXT_9_">
		<text transform="matrix(1 0 0 1 373.1975 675.575)" class="st7 st10">2</text>
	</g>
	<g id="TEXT_10_">
		<text transform="matrix(1 0 0 1 357.193 671.1503)" class="st7 st10">3</text>
	</g>
	<g id="TEXT_11_">
		<text transform="matrix(1 0 0 1 341.7632 666.9191)" class="st7 st10">4</text>
	</g>
	<g id="TEXT_12_">
		<text transform="matrix(1 0 0 1 326.3186 662.3638)" class="st7 st10">5</text>
	</g>
	<g id="TEXT_13_">
		<text transform="matrix(1 0 0 1 311.4532 657.6082)" class="st7 st10">6</text>
	</g>
	<g id="TEXT_14_">
		<text transform="matrix(1 0 0 1 296.0706 653.0334)" class="st7 st10">7</text>
	</g>
	<g id="TEXT_15_">
		<text transform="matrix(1 0 0 1 280.6717 647.87)" class="st7 st10">8</text>
	</g>
	<g id="TEXT_16_">
		<text transform="matrix(1 0 0 1 265.6079 642.857)" class="st7 st10">9</text>
	</g>
	<g id="TEXT_17_">
		<text transform="matrix(1 0 0 1 246.7924 637.3364)" class="st7 st10">10</text>
	</g>
	<g id="TEXT_18_">
		<text transform="matrix(1 0 0 1 219.5285 627.6334)" class="st7 st10">11</text>
	</g>
	<g id="TEXT_19_">
		<text transform="matrix(1 0 0 1 202.3 621.1502)" class="st7 st10">12</text>
	</g>
	<g id="TEXT_20_">
		<text transform="matrix(1 0 0 1 187.8387 615.5731)" class="st7 st10">13</text>
	</g>
	<g id="TEXT_21_">
		<text transform="matrix(1 0 0 1 173.0898 609.7544)" class="st7 st10">14</text>
	</g>
	<g id="TEXT_22_">
		<text transform="matrix(1 0 0 1 158.2303 604.1165)" class="st7 st10">15</text>
	</g>
	<g id="TEXT_23_">
		<text transform="matrix(1 0 0 1 143.2353 597.5738)" class="st7 st10">16</text>
	</g>
	<g id="TEXT_24_">
		<text transform="matrix(1 0 0 1 128.6868 591.8222)" class="st7 st10">17</text>
	</g>
	<g id="TEXT_25_">
		<text transform="matrix(1 0 0 1 111.2892 585.1661)" class="st7 st10">18</text>
	</g>
	<g id="TEXT_26_">
		<text transform="matrix(1 0 0 1 93.638 580.0131)" class="st7 st10">19</text>
	</g>
	<g id="TEXT_27_">
		<text transform="matrix(1 0 0 1 540.1119 375.1625)" class="st7 st10">2</text>
	</g>
	<g id="TEXT_28_">
		<text transform="matrix(1 0 0 1 545.9921 362.9443)" class="st7 st10">1</text>
	</g>
	<g id="TEXT_29_">
		<text transform="matrix(1 0 0 1 403.8283 595.6684)" class="st7 st10">2</text>
	</g>
	<g id="TEXT_30_">
		<text transform="matrix(1 0 0 1 416.6568 599.63)" class="st7 st10">1</text>
	</g>
	<g id="TEXT_31_">
		<text transform="matrix(1 0 0 1 77.8955 576.6948)" class="st7 st10">20</text>
	</g>
	<g id="TEXT_32_">
		<text transform="matrix(1 0 0 1 61.5476 574.249)" class="st7 st10">21</text>
	</g>
	<g id="TEXT_33_">
		<text transform="matrix(1 0 0 1 390.8531 592.1581)" class="st7 st10">3</text>
	</g>
	<g id="TEXT_34_">
		<text transform="matrix(1 0 0 1 378.0113 588.5893)" class="st7 st10">4</text>
	</g>
	<g id="TEXT_35_">
		<text transform="matrix(1 0 0 1 365.0757 584.8792)" class="st7 st10">5</text>
	</g>
	<g id="TEXT_36_">
		<text transform="matrix(1 0 0 1 352.2634 581.0973)" class="st7 st10">6</text>
	</g>
	<g id="TEXT_37_">
		<text transform="matrix(1 0 0 1 339.4493 577.2272)" class="st7 st10">7</text>
	</g>
	<g id="TEXT_38_">
		<text transform="matrix(1 0 0 1 326.7 573.2227)" class="st7 st10">8</text>
	</g>
	<g id="TEXT_39_">
		<text transform="matrix(1 0 0 1 313.9744 569.1357)" class="st7 st10">9</text>
	</g>
	<g id="TEXT_40_">
		<text transform="matrix(1 0 0 1 300.1299 564.9491)" class="st7 st10">10</text>
	</g>
	<g id="TEXT_41_">
		<text transform="matrix(1 0 0 1 287.7304 560.6855)" class="st7 st10">11</text>
	</g>
	<g id="TEXT_42_">
		<text transform="matrix(1 0 0 1 274.869 556.2997)" class="st7 st10">12</text>
	</g>
	<g id="TEXT_43_">
		<text transform="matrix(1 0 0 1 249.628 547.1687)" class="st7 st10">13</text>
	</g>
	<g id="TEXT_44_">
		<text transform="matrix(1 0 0 1 237.1246 542.5076)" class="st7 st10">14</text>
	</g>
	<g id="TEXT_45_">
		<text transform="matrix(1 0 0 1 224.6373 537.701)" class="st7 st10">15</text>
	</g>
	<g id="TEXT_46_">
		<text transform="matrix(1 0 0 1 212.2136 532.8182)" class="st7 st10">16</text>
	</g>
	<g id="TEXT_47_">
		<text transform="matrix(1 0 0 1 199.815 527.8591)" class="st7 st10">17</text>
	</g>
	<g id="TEXT_48_">
		<text transform="matrix(1 0 0 1 187.4518 522.7553)" class="st7 st10">18</text>
	</g>
	<g id="TEXT_49_">
		<text transform="matrix(1 0 0 1 175.1285 517.5751)" class="st7 st10">19</text>
	</g>
	<g id="TEXT_50_">
		<text transform="matrix(1 0 0 1 163.7428 512.6411)" class="st7 st10">20</text>
	</g>
	<g id="TEXT_51_">
		<text transform="matrix(1 0 0 1 150.8065 507.4643)" class="st7 st10">21</text>
	</g>
	<g id="TEXT_52_">
		<text transform="matrix(1 0 0 1 137.333 502.4229)" class="st7 st10">22</text>
	</g>
	<g id="TEXT_53_">
		<text transform="matrix(1 0 0 1 123.2301 498.2042)" class="st7 st10">23</text>
	</g>
	<g id="TEXT_54_">
		<text transform="matrix(1 0 0 1 109.9403 495.1626)" class="st7 st10">24</text>
	</g>
	<g id="TEXT_55_">
		<text transform="matrix(1 0 0 1 96.8602 492.3446)" class="st7 st10">25</text>
	</g>
	<g id="TEXT_56_">
		<text transform="matrix(1 0 0 1 83.6891 490.0827)" class="st7 st10">26</text>
	</g>
	<g id="TEXT_57_">
		<text transform="matrix(1 0 0 1 69.7959 488.5954)" class="st7 st10">27</text>
	</g>
	<g id="TEXT_58_">
		<text transform="matrix(1 0 0 1 389.174 641.6581)" class="st7 st10">28</text>
	</g>
	<g id="TEXT_59_">
		<text transform="matrix(1 0 0 1 375.8179 638.5603)" class="st7 st10">29</text>
	</g>
	<g id="TEXT_60_">
		<text transform="matrix(1 0 0 1 362.9241 634.9862)" class="st7 st10">30</text>
	</g>
	<g id="TEXT_61_">
		<text transform="matrix(1 0 0 1 350.3312 631.3129)" class="st7 st10">31</text>
	</g>
	<g id="TEXT_62_">
		<text transform="matrix(1 0 0 1 337.2719 627.5397)" class="st7 st10">32</text>
	</g>
	<g id="TEXT_63_">
		<text transform="matrix(1 0 0 1 324.4744 623.6664)" class="st7 st10">33</text>
	</g>
	<g id="TEXT_64_">
		<text transform="matrix(1 0 0 1 311.7271 619.6931)" class="st7 st10">34</text>
	</g>
	<g id="TEXT_65_">
		<text transform="matrix(1 0 0 1 298.9901 615.6199)" class="st7 st10">35</text>
	</g>
	<g id="TEXT_66_">
		<text transform="matrix(1 0 0 1 286.3105 611.4467)" class="st7 st10">36</text>
	</g>
	<g id="TEXT_67_">
		<text transform="matrix(1 0 0 1 273.6504 607.1734)" class="st7 st10">37</text>
	</g>
	<g id="TEXT_68_">
		<text transform="matrix(1 0 0 1 259.7582 602.3572)" class="st7 st10">38</text>
	</g>
	<g id="TEXT_69_">
		<text transform="matrix(1 0 0 1 233.8926 593.1052)" class="st7 st10">39</text>
	</g>
	<g id="TEXT_70_">
		<text transform="matrix(1 0 0 1 220.1906 587.963)" class="st7 st10">40</text>
	</g>
	<g id="TEXT_71_">
		<text transform="matrix(1 0 0 1 207.9688 583.2068)" class="st7 st10">41</text>
	</g>
	<g id="TEXT_72_">
		<text transform="matrix(1 0 0 1 195.2856 578.3295)" class="st7 st10">42</text>
	</g>
	<g id="TEXT_73_">
		<text transform="matrix(1 0 0 1 182.9374 573.0554)" class="st7 st10">43</text>
	</g>
	<g id="TEXT_74_">
		<text transform="matrix(1 0 0 1 170.5757 567.9993)" class="st7 st10">44</text>
	</g>
	<g id="TEXT_75_">
		<text transform="matrix(1 0 0 1 158.435 563.3527)" class="st7 st10">45</text>
	</g>
	<g id="TEXT_76_">
		<text transform="matrix(1 0 0 1 146.5808 558.2837)" class="st7 st10">46</text>
	</g>
	<g id="TEXT_77_">
		<text transform="matrix(1 0 0 1 134.4065 553.201)" class="st7 st10">47</text>
	</g>
	<g id="TEXT_78_">
		<text transform="matrix(1 0 0 1 121.4108 548.7584)" class="st7 st10">48</text>
	</g>
	<g id="TEXT_79_">
		<text transform="matrix(1 0 0 1 109.0339 545.0109)" class="st7 st10">49</text>
	</g>
	<g id="TEXT_80_">
		<text transform="matrix(1 0 0 1 95.2191 541.6537)" class="st7 st10">50</text>
	</g>
	<g id="TEXT_81_">
		<text transform="matrix(1 0 0 1 82.9514 539.2841)" class="st7 st10">51</text>
	</g>
	<g id="TEXT_82_">
		<text transform="matrix(1 0 0 1 67.103 536.5765)" class="st7 st10">52</text>
	</g>
	<g id="TEXT_83_">
		<text transform="matrix(1 0 0 1 430.2955 386.6321)" class="st7 st10">2</text>
	</g>
	<g id="TEXT_84_">
		<text transform="matrix(1 0 0 1 436.1757 374.4139)" class="st7 st10">1</text>
	</g>
	<g id="TEXT_85_">
		<text transform="matrix(1 0 0 1 423.846 398.326)" class="st7 st10">3</text>
	</g>
	<g id="TEXT_86_">
		<text transform="matrix(1 0 0 1 417.494 410.0617)" class="st7 st10">4</text>
	</g>
	<g id="TEXT_87_">
		<text transform="matrix(1 0 0 1 411.0125 421.7565)" class="st7 st10">5</text>
	</g>
	<g id="TEXT_88_">
		<text transform="matrix(1 0 0 1 404.6186 433.4795)" class="st7 st10">6</text>
	</g>
	<g id="TEXT_89_">
		<text transform="matrix(1 0 0 1 398.1873 445.2143)" class="st7 st10">7</text>
	</g>
	<g id="TEXT_90_">
		<text transform="matrix(1 0 0 1 391.7852 456.9146)" class="st7 st10">8</text>
	</g>
	<g id="TEXT_91_">
		<text transform="matrix(1 0 0 1 385.3712 468.632)" class="st7 st10">9</text>
	</g>
	<g id="TEXT_92_">
		<text transform="matrix(1 0 0 1 377.8028 480.3496)" class="st7 st10">10</text>
	</g>
	<g id="TEXT_93_">
		<text transform="matrix(1 0 0 1 371.6439 492.0899)" class="st7 st10">11</text>
	</g>
	<g id="TEXT_94_">
		<text transform="matrix(1 0 0 1 364.9875 503.8074)" class="st7 st10">12</text>
	</g>
	<g id="TEXT_95_">
		<text transform="matrix(1 0 0 1 358.5617 515.5013)" class="st7 st10">13</text>
	</g>
	<g id="TEXT_96_">
		<text transform="matrix(1 0 0 1 352.155 527.2425)" class="st7 st10">14</text>
	</g>
	<g id="TEXT_97_">
		<text transform="matrix(1 0 0 1 346.3578 538.1589)" class="st7 st10">15</text>
	</g>
	<g id="TEXT_98_">
		<text transform="matrix(1 0 0 1 388.5114 350.6028)" class="st7 st10">16</text>
	</g>
	<g id="TEXT_99_">
		<text transform="matrix(1 0 0 1 382.0139 362.4976)" class="st7 st10">17</text>
	</g>
	<g id="TEXT_100_">
		<text transform="matrix(1 0 0 1 375.5989 374.1923)" class="st7 st10">18</text>
	</g>
	<g id="TEXT_101_">
		<text transform="matrix(1 0 0 1 369.1868 385.9099)" class="st7 st10">19</text>
	</g>
	<g id="TEXT_102_">
		<text transform="matrix(1 0 0 1 362.9304 397.6274)" class="st7 st10">20</text>
	</g>
	<g id="TEXT_103_">
		<text transform="matrix(1 0 0 1 356.7715 409.3677)" class="st7 st10">21</text>
	</g>
	<g id="TEXT_104_">
		<text transform="matrix(1 0 0 1 350.1152 421.0852)" class="st7 st10">22</text>
	</g>
	<g id="TEXT_105_">
		<text transform="matrix(1 0 0 1 343.6894 432.7791)" class="st7 st10">23</text>
	</g>
	<g id="TEXT_106_">
		<text transform="matrix(1 0 0 1 337.2827 444.5203)" class="st7 st10">24</text>
	</g>
	<g id="TEXT_107_">
		<text transform="matrix(1 0 0 1 330.855 456.215)" class="st7 st10">25</text>
	</g>
	<g id="TEXT_108_">
		<text transform="matrix(1 0 0 1 324.4538 467.9326)" class="st7 st10">26</text>
	</g>
	<g id="TEXT_109_">
		<text transform="matrix(1 0 0 1 318.0407 479.6729)" class="st7 st10">27</text>
	</g>
	<g id="TEXT_110_">
		<text transform="matrix(1 0 0 1 311.6258 491.3676)" class="st7 st10">28</text>
	</g>
	<g id="TEXT_111_">
		<text transform="matrix(1 0 0 1 305.2136 503.0851)" class="st7 st10">29</text>
	</g>
	<g id="TEXT_112_">
		<text transform="matrix(1 0 0 1 297.8617 516.489)" class="st7 st10">30</text>
	</g>
	<g id="TEXT_113_">
		<text transform="matrix(1 0 0 1 491.9208 353.1988)" class="st7 st10">19</text>
	</g>
	<g id="TEXT_114_">
		<text transform="matrix(1 0 0 1 484.7228 366.6371)" class="st7 st10">20</text>
	</g>
	<g id="TEXT_115_">
		<text transform="matrix(1 0 0 1 474.4985 385.8064)" class="st7 st10">21</text>
	</g>
	<g id="TEXT_116_">
		<text transform="matrix(1 0 0 1 467.8422 397.5239)" class="st7 st10">22</text>
	</g>
	<g id="TEXT_117_">
		<text transform="matrix(1 0 0 1 461.4164 409.2178)" class="st7 st10">23</text>
	</g>
	<g id="TEXT_118_">
		<text transform="matrix(1 0 0 1 455.0096 420.959)" class="st7 st10">24</text>
	</g>
	<g id="TEXT_119_">
		<text transform="matrix(1 0 0 1 448.582 432.6537)" class="st7 st10">25</text>
	</g>
	<g id="TEXT_120_">
		<text transform="matrix(1 0 0 1 442.1808 444.3713)" class="st7 st10">26</text>
	</g>
	<g id="TEXT_121_">
		<text transform="matrix(1 0 0 1 435.7677 456.1116)" class="st7 st10">27</text>
	</g>
	<g id="TEXT_122_">
		<text transform="matrix(1 0 0 1 429.3528 467.8063)" class="st7 st10">28</text>
	</g>
	<g id="TEXT_123_">
		<text transform="matrix(1 0 0 1 422.9406 479.5239)" class="st7 st10">29</text>
	</g>
	<g id="TEXT_124_">
		<text transform="matrix(1 0 0 1 416.5121 491.2405)" class="st7 st10">30</text>
	</g>
	<g id="TEXT_125_">
		<text transform="matrix(1 0 0 1 410.3532 502.958)" class="st7 st10">31</text>
	</g>
	<g id="TEXT_126_">
		<text transform="matrix(1 0 0 1 403.6968 514.6755)" class="st7 st10">32</text>
	</g>
	<g id="TEXT_127_">
		<text transform="matrix(1 0 0 1 397.271 526.3931)" class="st7 st10">33</text>
	</g>
	<g id="TEXT_128_">
		<text transform="matrix(1 0 0 1 390.8643 538.1106)" class="st7 st10">34</text>
	</g>
	<g id="TEXT_129_">
		<text transform="matrix(1 0 0 1 383.696 551.1815)" class="st7 st10">35</text>
	</g>
	<g id="TEXT_130_">
		<text transform="matrix(1 0 0 1 533.6624 386.8564)" class="st7 st10">3</text>
	</g>
	<g id="TEXT_131_">
		<text transform="matrix(1 0 0 1 527.3104 398.5921)" class="st7 st10">4</text>
	</g>
	<g id="TEXT_132_">
		<text transform="matrix(1 0 0 1 520.8289 410.2868)" class="st7 st10">5</text>
	</g>
	<g id="TEXT_133_">
		<text transform="matrix(1 0 0 1 514.435 422.0098)" class="st7 st10">6</text>
	</g>
	<g id="TEXT_134_">
		<text transform="matrix(1 0 0 1 508.0037 433.7447)" class="st7 st10">7</text>
	</g>
	<g id="TEXT_135_">
		<text transform="matrix(1 0 0 1 501.6015 445.4449)" class="st7 st10">8</text>
	</g>
	<g id="TEXT_136_">
		<text transform="matrix(1 0 0 1 495.1876 457.1624)" class="st7 st10">9</text>
	</g>
	<g id="TEXT_137_">
		<text transform="matrix(1 0 0 1 487.6191 468.8799)" class="st7 st10">10</text>
	</g>
	<g id="TEXT_138_">
		<text transform="matrix(1 0 0 1 481.4603 480.6203)" class="st7 st10">11</text>
	</g>
	<g id="TEXT_139_">
		<text transform="matrix(1 0 0 1 474.8039 492.3378)" class="st7 st10">12</text>
	</g>
	<g id="TEXT_140_">
		<text transform="matrix(1 0 0 1 468.3781 504.0316)" class="st7 st10">13</text>
	</g>
	<g id="TEXT_141_">
		<text transform="matrix(1 0 0 1 461.9714 515.7728)" class="st7 st10">14</text>
	</g>
	<g id="TEXT_142_">
		<text transform="matrix(1 0 0 1 455.5437 527.4676)" class="st7 st10">15</text>
	</g>
	<g id="TEXT_143_">
		<text transform="matrix(1 0 0 1 449.1425 539.1851)" class="st7 st10">16</text>
	</g>
	<g id="TEXT_144_">
		<text transform="matrix(1 0 0 1 442.7294 550.9254)" class="st7 st10">17</text>
	</g>
	<g id="TEXT_145_">
		<text transform="matrix(1 0 0 1 435.1714 564.7092)" class="st7 st10">18</text>
	</g>
	<g id="TEXT_146_">
		<text transform="matrix(1 0 0 1 513.0254 335.81)" class="st7 st10">1</text>
	</g>
	<g id="TEXT_147_">
		<text transform="matrix(1 0 0 1 504.7275 331.3215)" class="st7 st10">2</text>
	</g>
	<g id="TEXT_148_">
		<text transform="matrix(1 0 0 1 497.6596 327.4505)" class="st7 st10">3</text>
	</g>
	<g id="TEXT_149_">
		<text transform="matrix(1 0 0 1 490.6892 323.6214)" class="st7 st10">4</text>
	</g>
	<g id="TEXT_150_">
		<text transform="matrix(1 0 0 1 478.9024 317.1865)" class="st7 st10">5</text>
	</g>
	<g id="TEXT_151_">
		<text transform="matrix(1 0 0 1 471.8828 313.3406)" class="st7 st10">6</text>
	</g>
	<g id="TEXT_152_">
		<text transform="matrix(1 0 0 1 464.8331 309.5106)" class="st7 st10">7</text>
	</g>
	<g id="TEXT_153_">
		<text transform="matrix(1 0 0 1 457.8126 305.646)" class="st7 st10">8</text>
	</g>
	<g id="TEXT_154_">
		<text transform="matrix(1 0 0 1 450.7803 301.7987)" class="st7 st10">9</text>
	</g>
	<g id="TEXT_155_">
		<text transform="matrix(1 0 0 1 441.1919 299.6325)" class="st7 st10">10</text>
	</g>
	<g id="TEXT_156_">
		<text transform="matrix(1 0 0 1 434.4146 295.808)" class="st7 st10">11</text>
	</g>
	<g id="TEXT_157_">
		<text transform="matrix(1 0 0 1 427.14 291.9607)" class="st7 st10">12</text>
	</g>
	<g id="TEXT_158_">
		<text transform="matrix(1 0 0 1 420.0958 288.0897)" class="st7 st10">13</text>
	</g>
	<g id="TEXT_159_">
		<text transform="matrix(1 0 0 1 413.0707 284.2661)" class="st7 st10">14</text>
	</g>
	<g id="TEXT_160_">
		<text transform="matrix(1 0 0 1 454.6877 339.4635)" class="st7 st10">37</text>
	</g>
	<g id="TEXT_161_">
		<text transform="matrix(1 0 0 1 441.7871 332.4055)" class="st7 st10">38</text>
	</g>
	<g id="TEXT_162_">
		<text transform="matrix(1 0 0 1 434.7566 328.5582)" class="st7 st10">39</text>
	</g>
	<g id="TEXT_163_">
		<text transform="matrix(1 0 0 1 427.7881 324.7118)" class="st7 st10">40</text>
	</g>
	<g id="TEXT_164_">
		<text transform="matrix(1 0 0 1 421.0109 320.8872)" class="st7 st10">41</text>
	</g>
	<g id="TEXT_165_">
		<text transform="matrix(1 0 0 1 413.7361 317.0399)" class="st7 st10">42</text>
	</g>
	<g id="TEXT_166_">
		<text transform="matrix(1 0 0 1 406.692 313.1689)" class="st7 st10">43</text>
	</g>
	<g id="TEXT_167_">
		<text transform="matrix(1 0 0 1 399.6669 309.3399)" class="st7 st10">44</text>
	</g>
	<g id="HATCH_1_">
		<path class="st11" d="M206.76,368.21l-7.49,81.94l-7.05,22.56c-0.76,2.44,0.31,5.08,2.56,6.3l19.48,10.51
			c1.59,0.86,3.42,1.15,5.2,0.84l17.74-3.13c1.9-0.33,3.47-1.67,4.11-3.49c0,0,14.01-39.85,14.01-39.85l15.81-24.5
			c1.41-2.19,1.67-4.93,0.7-7.35c0,0-7.24-17.94-7.24-17.94l0.54-26.45c0.07-3.33-1.93-6.35-5.01-7.6l-28.07-11.33
			c-3.05-1.23-6.55-0.47-8.81,1.91c0,0-16.44,17.31-16.44,17.31L206.76,368.21L206.76,368.21z"/>
		<path class="st12" d="M223.51,352.58h4.24 M231.99,352.58h4.24 M240.47,352.58h1.15 M219.27,356.82h4.24 M227.75,356.82h4.24
			 M236.23,356.82h4.24 M244.71,356.82h4.24 M215.03,361.06h4.24 M223.51,361.06h4.24 M231.99,361.06h4.24 M240.47,361.06h4.24
			 M248.96,361.06h4.24 M257.44,361.06h3.92 M210.79,365.3h4.24 M219.27,365.3h4.24 M227.75,365.3h4.24 M236.23,365.3h4.24
			 M244.71,365.3h4.24 M253.2,365.3h4.24 M261.68,365.3h2.78 M206.64,369.54h4.14 M215.03,369.54h4.24 M223.51,369.54h4.24
			 M231.99,369.54h4.24 M240.47,369.54h4.24 M248.96,369.54h4.24 M257.44,369.54h4.24 M206.25,373.78h0.29 M210.79,373.78h4.24
			 M219.27,373.78h4.24 M227.75,373.78h4.24 M236.23,373.78h4.24 M244.71,373.78h4.24 M253.2,373.78h4.24 M261.68,373.78h3.33
			 M206.55,378.02h4.24 M215.03,378.02h4.24 M223.51,378.02h4.24 M231.99,378.02h4.24 M240.47,378.02h4.24 M248.96,378.02h4.24
			 M257.44,378.02h4.24 M205.48,382.26h1.07 M210.79,382.26h4.24 M219.27,382.26h4.24 M227.75,382.26h4.24 M236.23,382.26h4.24
			 M244.71,382.26h4.24 M253.2,382.26h4.24 M261.68,382.26h3.16 M206.55,386.51h4.24 M215.03,386.51h4.24 M223.51,386.51h4.24
			 M231.99,386.51h4.24 M240.47,386.51h4.24 M248.96,386.51h4.24 M257.44,386.51h4.24 M204.7,390.75h1.84 M210.79,390.75h4.24
			 M219.27,390.75h4.24 M227.75,390.75h4.24 M236.23,390.75h4.24 M244.71,390.75h4.24 M253.2,390.75h4.24 M261.68,390.75h2.99
			 M206.55,394.99h4.24 M215.03,394.99h4.24 M223.51,394.99h4.24 M231.99,394.99h4.24 M240.47,394.99h4.24 M248.96,394.99h4.24
			 M257.44,394.99h4.24 M203.93,399.23h2.62 M210.79,399.23h4.24 M219.27,399.23h4.24 M227.75,399.23h4.24 M236.23,399.23h4.24
			 M244.71,399.23h4.24 M253.2,399.23h4.24 M261.68,399.23h4.24 M206.55,403.47h4.24 M215.03,403.47h4.24 M223.51,403.47h4.24
			 M231.99,403.47h4.24 M240.47,403.47h4.24 M248.96,403.47h4.24 M257.44,403.47h4.24 M265.92,403.47h2.46 M203.15,407.71h3.39
			 M210.79,407.71h4.24 M219.27,407.71h4.24 M227.75,407.71h4.24 M236.23,407.71h4.24 M244.71,407.71h4.24 M253.2,407.71h4.24
			 M261.68,407.71h4.24 M206.55,411.95h4.24 M215.03,411.95h4.24 M223.51,411.95h4.24 M231.99,411.95h4.24 M240.47,411.95h4.24
			 M248.96,411.95h4.24 M257.44,411.95h4.24 M265.92,411.95h4.24 M202.38,416.19h4.17 M210.79,416.19h4.24 M219.27,416.19h4.24
			 M227.75,416.19h4.24 M236.23,416.19h4.24 M244.71,416.19h4.24 M253.2,416.19h4.24 M261.68,416.19h4.24 M270.16,416.19h2.09
			 M201.99,420.43h0.32 M206.55,420.43h4.24 M215.03,420.43h4.24 M223.51,420.43h4.24 M231.99,420.43h4.24 M240.47,420.43h4.24
			 M248.96,420.43h4.24 M257.44,420.43h4.24 M265.92,420.43h4.24 M202.3,424.67h4.24 M210.79,424.67h4.24 M219.27,424.67h4.24
			 M227.75,424.67h4.24 M236.23,424.67h4.24 M244.71,424.67h4.24 M253.2,424.67h4.24 M261.68,424.67h4.24 M201.21,428.91h1.09
			 M206.55,428.91h4.24 M215.03,428.91h4.24 M223.51,428.91h4.24 M231.99,428.91h4.24 M240.47,428.91h4.24 M248.96,428.91h4.24
			 M257.44,428.91h4.24 M202.3,433.16h4.24 M210.79,433.16h4.24 M219.27,433.16h4.24 M227.75,433.16h4.24 M236.23,433.16h4.24
			 M244.71,433.16h4.24 M253.2,433.16h4.24 M261.68,433.16h0.58 M200.44,437.4h1.87 M206.55,437.4h4.24 M215.03,437.4h4.24
			 M223.51,437.4h4.24 M231.99,437.4h4.24 M240.47,437.4h4.24 M248.96,437.4h4.24 M257.44,437.4h2.08 M202.3,441.64h4.24
			 M210.79,441.64h4.24 M219.27,441.64h4.24 M227.75,441.64h4.24 M236.23,441.64h4.24 M244.71,441.64h4.24 M253.2,441.64h3.58
			 M199.66,445.88h2.64 M206.55,445.88h4.24 M215.03,445.88h4.24 M223.51,445.88h4.24 M231.99,445.88h4.24 M240.47,445.88h4.24
			 M248.96,445.88h4.24 M202.3,450.12h4.24 M210.79,450.12h4.24 M219.27,450.12h4.24 M227.75,450.12h4.24 M236.23,450.12h4.24
			 M244.71,450.12h4.24 M198.06,454.36h4.24 M206.55,454.36h4.24 M215.03,454.36h4.24 M223.51,454.36h4.24 M231.99,454.36h4.24
			 M240.47,454.36h4.24 M248.96,454.36h2.69 M196.63,458.6h1.43 M202.3,458.6h4.24 M210.79,458.6h4.24 M219.27,458.6h4.24
			 M227.75,458.6h4.24 M236.23,458.6h4.24 M244.71,458.6h4.24 M198.06,462.84h4.24 M206.55,462.84h4.24 M215.03,462.84h4.24
			 M223.51,462.84h4.24 M231.99,462.84h4.24 M240.47,462.84h4.24 M193.98,467.08h4.08 M202.3,467.08h4.24 M210.79,467.08h4.24
			 M219.27,467.08h4.24 M227.75,467.08h4.24 M236.23,467.08h4.24 M244.71,467.08h2.46 M192.66,471.32h1.17 M198.06,471.32h4.24
			 M206.55,471.32h4.24 M215.03,471.32h4.24 M223.51,471.32h4.24 M231.99,471.32h4.24 M240.47,471.32h4.24 M193.82,475.56h4.24
			 M202.3,475.56h4.24 M210.79,475.56h4.24 M219.27,475.56h4.24 M227.75,475.56h4.24 M236.23,475.56h4.24 M198.06,479.81h4.24
			 M206.55,479.81h4.24 M215.03,479.81h4.24 M223.51,479.81h4.24 M231.99,479.81h4.24 M240.47,479.81h2.22 M204.14,484.05h2.4
			 M210.79,484.05h4.24 M219.27,484.05h4.24 M227.75,484.05h4.24 M236.23,484.05h4.24 M215.03,488.29h4.24 M223.51,488.29h4.24"/>
	</g>
	<g id="LWPOLYLINE_113_">
		<line class="st5" x1="146.41" y1="113.51" x2="152.83" y2="101.79"/>
	</g>
	<g id="LWPOLYLINE_114_">
		<path class="st5" d="M436.38,667.26l-6.03-1.45c-0.26-0.1-0.51-0.2-0.77-0.31c-7.69-3.39-11.19-12.37-7.8-20.06
			c0,0,152.59-279.41,152.59-279.41c4.25-7.77,13.99-10.62,21.76-6.37c0,0,0.95,0.52,0.95,0.52"/>
	</g>
	<g id="LWPOLYLINE_115_">
		<line class="st5" x1="432.84" y1="681.99" x2="436.38" y2="667.26"/>
	</g>
	<g id="LWPOLYLINE_116_">
		<line class="st5" x1="597.08" y1="360.18" x2="603.49" y2="348.46"/>
	</g>
	<g id="LWPOLYLINE_117_">
		<line class="st5" x1="596.67" y1="325.27" x2="587.3" y2="320.14"/>
	</g>
	<g id="LWPOLYLINE_118_">
		<line class="st5" x1="348.26" y1="189.34" x2="340.06" y2="184.85"/>
	</g>
	<g id="LWPOLYLINE_119_">
		<line class="st5" x1="267.41" y1="145.09" x2="258.04" y2="139.96"/>
	</g>
	<g id="LWPOLYLINE_120_">
		
			<rect x="428.5" y="674.22" transform="matrix(0.2335 -0.9723 0.9723 0.2335 -321.4926 942.618)" class="st1" width="17.34" height="2.03"/>
	</g>
	<g id="LWPOLYLINE_121_">
		<polygon class="st1" points="445.27,677.18 436.4,689.91 443.15,661.81 		"/>
	</g>
	<g id="HATCH_2_">
		<path class="st2" d="M445.27,677.18l-8.87,12.73l6.75-28.11L445.27,677.18z M436.13,683.91l-1.98-0.47l4.05-16.86l1.98,0.47
			L436.13,683.91z"/>
	</g>
	<g id="LWPOLYLINE_122_">
		<line class="st1" x1="438.21" y1="666.57" x2="434.16" y2="683.43"/>
	</g>
	<g id="LWPOLYLINE_123_">
		<line class="st3" x1="437.11" y1="664.23" x2="432.11" y2="685.01"/>
	</g>
	<g id="LWPOLYLINE_124_">
		
			<rect x="593.92" y="354.57" transform="matrix(0.4801 -0.8772 0.8772 0.4801 1.3854 713.5071)" class="st1" width="17.34" height="2.03"/>
	</g>
	<g id="LWPOLYLINE_125_">
		<polygon class="st1" points="609.9,359.58 598.01,369.55 611.88,344.19 		"/>
	</g>
	<g id="HATCH_3_">
		<path class="st2" d="M609.9,359.58l-11.89,9.97l13.88-25.36L609.9,359.58z M599.32,363.68l-1.78-0.98l8.33-15.21l1.78,0.98
			L599.32,363.68z"/>
	</g>
	<g id="LWPOLYLINE_126_">
		<line class="st1" x1="605.87" y1="347.49" x2="597.54" y2="362.7"/>
	</g>
	<g id="LWPOLYLINE_127_">
		<line class="st3" x1="605.42" y1="344.95" x2="595.16" y2="363.69"/>
	</g>
	<g id="LWPOLYLINE_128_">
		
			<rect x="592.23" y="311.73" transform="matrix(0.4801 -0.8772 0.8772 0.4801 27.3926 687.0135)" class="st1" width="2.03" height="17.34"/>
	</g>
	<g id="LWPOLYLINE_129_">
		<polygon class="st1" points="597.25,313.09 607.21,324.99 581.86,311.11 		"/>
	</g>
	<g id="HATCH_4_">
		<path class="st2" d="M597.25,313.09l9.97,11.89l-25.36-13.88L597.25,313.09z M601.34,323.67l-0.98,1.78l-15.21-8.33l0.98-1.78
			L601.34,323.67z"/>
	</g>
	<g id="LWPOLYLINE_130_">
		<line class="st1" x1="585.15" y1="317.13" x2="600.37" y2="325.45"/>
	</g>
	<g id="LWPOLYLINE_131_">
		<line class="st3" x1="582.61" y1="317.58" x2="601.36" y2="327.84"/>
	</g>
	<g id="LWPOLYLINE_132_">
		
			<rect x="344.41" y="176.11" transform="matrix(0.4801 -0.8772 0.8772 0.4801 17.5049 399.0966)" class="st1" width="2.03" height="17.34"/>
	</g>
	<g id="LWPOLYLINE_133_">
		<polygon class="st1" points="349.42,177.48 359.39,189.37 334.03,175.49 		"/>
	</g>
	<g id="HATCH_5_">
		<path class="st2" d="M349.42,177.48l9.97,11.89l-25.36-13.88L349.42,177.48z M353.52,188.05l-0.98,1.78l-15.21-8.33l0.98-1.78
			L353.52,188.05z"/>
	</g>
	<g id="LWPOLYLINE_134_">
		<line class="st1" x1="337.33" y1="181.51" x2="352.54" y2="189.84"/>
	</g>
	<g id="LWPOLYLINE_135_">
		<line class="st3" x1="334.79" y1="181.96" x2="353.53" y2="192.22"/>
	</g>
	<g id="LWPOLYLINE_136_">
		
			<rect x="262.97" y="131.55" transform="matrix(0.4801 -0.8772 0.8772 0.4801 14.2558 304.4857)" class="st1" width="2.03" height="17.34"/>
	</g>
	<g id="LWPOLYLINE_137_">
		<polygon class="st1" points="267.98,132.91 277.95,144.81 252.59,130.93 		"/>
	</g>
	<g id="HATCH_6_">
		<path class="st2" d="M267.98,132.91l9.97,11.89l-25.36-13.88L267.98,132.91z M272.08,143.49l-0.98,1.78l-15.21-8.33l0.98-1.78
			L272.08,143.49z"/>
	</g>
	<g id="LWPOLYLINE_138_">
		<line class="st1" x1="255.89" y1="136.95" x2="271.11" y2="145.27"/>
	</g>
	<g id="LWPOLYLINE_139_">
		<line class="st3" x1="253.35" y1="137.4" x2="272.1" y2="147.66"/>
	</g>
	<g id="LWPOLYLINE_140_">
		
			<rect x="138.64" y="105.37" transform="matrix(0.4805 -0.877 0.877 0.4805 -16.7701 184.4527)" class="st1" width="17.34" height="2.03"/>
	</g>
	<g id="LWPOLYLINE_141_">
		<polygon class="st1" points="140.01,102.38 151.91,92.42 138.02,117.77 		"/>
	</g>
	<g id="HATCH_7_">
		<path class="st2" d="M140.01,102.38l11.9-9.96l-13.89,25.35L140.01,102.38z M150.59,98.29l1.78,0.98l-8.33,15.21l-1.78-0.98
			L150.59,98.29z"/>
	</g>
	<g id="LWPOLYLINE_142_">
		<line class="st1" x1="144.04" y1="114.48" x2="152.37" y2="99.27"/>
	</g>
	<g id="LWPOLYLINE_143_">
		<line class="st3" x1="144.49" y1="117.02" x2="154.76" y2="98.28"/>
	</g>
</g>
<g id="K7.1.1">
	<g id="LWPOLYLINE_144_">
		<polyline class="st13" points="537.52,344.33 529.83,358.39 553.26,371.21 560.96,357.15 537.52,344.33 		"/>
	</g>
</g>
<g id="K7.1.2">
	<g id="LWPOLYLINE_145_">
		
			<rect x="531.66" y="357.3" transform="matrix(0.4801 -0.8772 0.8772 0.4801 -45.2507 664.9758)" class="st13" width="13.36" height="26.71"/>
	</g>
</g>
<g id="K7.1.3">
	<g id="LWPOLYLINE_146_">
		
			<rect x="525.25" y="369.02" transform="matrix(0.4801 -0.8772 0.8772 0.4801 -58.8638 665.4432)" class="st13" width="13.36" height="26.71"/>
	</g>
</g>
<g id="K7.1.4">
	<g id="LWPOLYLINE_147_">
		
			<rect x="518.83" y="380.74" transform="matrix(0.4801 -0.8772 0.8772 0.4801 -72.4769 665.9108)" class="st13" width="13.36" height="26.71"/>
	</g>
</g>
<g id="K7.1.5">
	<g id="LWPOLYLINE_148_">
		
			<rect x="512.42" y="392.46" transform="matrix(0.4801 -0.8772 0.8772 0.4801 -86.09 666.3783)" class="st13" width="13.36" height="26.71"/>
	</g>
</g>
<g id="K7.1.6">
	<g id="LWPOLYLINE_149_">
		
			<rect x="506.01" y="404.17" transform="matrix(0.4801 -0.8772 0.8772 0.4801 -99.7031 666.8458)" class="st13" width="13.36" height="26.71"/>
	</g>
</g>
<g id="K7.1.7">
	<g id="LWPOLYLINE_150_">
		
			<rect x="499.6" y="415.89" transform="matrix(0.4801 -0.8772 0.8772 0.4801 -113.3162 667.3133)" class="st13" width="13.36" height="26.71"/>
	</g>
</g>
<g id="K7.1.8">
	<g id="LWPOLYLINE_151_">
		
			<rect x="493.19" y="427.61" transform="matrix(0.4801 -0.8772 0.8772 0.4801 -126.9293 667.7808)" class="st13" width="13.36" height="26.71"/>
	</g>
</g>
<g id="K7.1.9">
	<g id="LWPOLYLINE_152_">
		
			<rect x="486.77" y="439.33" transform="matrix(0.4801 -0.8772 0.8772 0.4801 -140.5424 668.2483)" class="st13" width="13.36" height="26.71"/>
	</g>
</g>
<g id="K7.1.10">
	<g id="LWPOLYLINE_153_">
		
			<rect x="480.36" y="451.04" transform="matrix(0.4801 -0.8772 0.8772 0.4801 -154.1554 668.7158)" class="st13" width="13.36" height="26.71"/>
	</g>
</g>
<g id="K7.1.11">
	<g id="LWPOLYLINE_154_">
		
			<rect x="473.95" y="462.76" transform="matrix(0.4801 -0.8772 0.8772 0.4801 -167.7685 669.1833)" class="st13" width="13.36" height="26.71"/>
	</g>
</g>
<g id="K7.1.12">
	<g id="LWPOLYLINE_155_">
		
			<rect x="467.54" y="474.48" transform="matrix(0.4801 -0.8772 0.8772 0.4801 -181.3816 669.6508)" class="st13" width="13.36" height="26.71"/>
	</g>
</g>
<g id="K7.1.13">
	<g id="LWPOLYLINE_156_">
		
			<rect x="461.12" y="486.2" transform="matrix(0.4801 -0.8772 0.8772 0.4801 -194.9947 670.1183)" class="st13" width="13.36" height="26.71"/>
	</g>
</g>
<g id="K7.1.14">
	<g id="LWPOLYLINE_157_">
		
			<rect x="454.71" y="497.91" transform="matrix(0.4801 -0.8772 0.8772 0.4801 -208.6078 670.5858)" class="st13" width="13.36" height="26.71"/>
	</g>
</g>
<g id="K7.1.15">
	<g id="LWPOLYLINE_158_">
		
			<rect x="448.3" y="509.63" transform="matrix(0.4801 -0.8772 0.8772 0.4801 -222.2209 671.0533)" class="st13" width="13.36" height="26.71"/>
	</g>
</g>
<g id="K7.1.16">
	<g id="LWPOLYLINE_159_">
		
			<rect x="441.89" y="521.35" transform="matrix(0.4801 -0.8772 0.8772 0.4801 -235.834 671.5208)" class="st13" width="13.36" height="26.71"/>
	</g>
</g>
<g id="K7.1.17">
	<g id="LWPOLYLINE_160_">
		
			<rect x="435.48" y="533.07" transform="matrix(0.4801 -0.8772 0.8772 0.4801 -249.4471 671.9883)" class="st13" width="13.36" height="26.71"/>
	</g>
</g>
<g id="K7.1.18">
	<g id="LWPOLYLINE_161_">
		<polygon class="st13" points="427.23,545.87 418.53,561.77 436.27,571.61 445.98,567.26 450.67,558.69 		"/>
	</g>
</g>
<g id="K7.1.19">
	<g id="LWPOLYLINE_162_">
		
			<rect x="489.36" y="337.21" transform="matrix(0.4806 -0.8769 0.8769 0.4806 -49.7814 617.0749)" class="st13" width="13.35" height="26.71"/>
	</g>
</g>
<g id="K7.1.20">
	<g id="LWPOLYLINE_163_">
		
			<rect x="480.97" y="350.09" transform="matrix(0.4796 -0.8775 0.8775 0.4796 -64.4503 618.2244)" class="st13" width="16.03" height="26.71"/>
	</g>
</g>
<g id="K7.1.21">
	<g id="LWPOLYLINE_164_">
		
			<rect x="471.41" y="370.01" transform="matrix(0.4801 -0.8772 0.8772 0.4801 -87.7262 618.7324)" class="st13" width="13.36" height="26.71"/>
	</g>
</g>
<g id="K7.1.22">
	<g id="LWPOLYLINE_165_">
		
			<rect x="465" y="381.73" transform="matrix(0.4801 -0.8772 0.8772 0.4801 -101.3393 619.2)" class="st13" width="13.36" height="26.71"/>
	</g>
</g>
<g id="K7.1.23">
	<g id="LWPOLYLINE_166_">
		
			<rect x="458.59" y="393.45" transform="matrix(0.4801 -0.8772 0.8772 0.4801 -114.9524 619.6675)" class="st13" width="13.36" height="26.71"/>
	</g>
</g>
<g id="K7.1.24">
	<g id="LWPOLYLINE_167_">
		
			<rect x="452.17" y="405.17" transform="matrix(0.4801 -0.8772 0.8772 0.4801 -128.5655 620.1349)" class="st13" width="13.36" height="26.71"/>
	</g>
</g>
<g id="K7.1.25">
	<g id="LWPOLYLINE_168_">
		
			<rect x="445.76" y="416.88" transform="matrix(0.4801 -0.8772 0.8772 0.4801 -142.1786 620.6025)" class="st13" width="13.36" height="26.71"/>
	</g>
</g>
<g id="K7.1.26">
	<g id="LWPOLYLINE_169_">
		
			<rect x="439.35" y="428.6" transform="matrix(0.4801 -0.8772 0.8772 0.4801 -155.7917 621.0699)" class="st13" width="13.36" height="26.71"/>
	</g>
</g>
<g id="K7.1.27">
	<g id="LWPOLYLINE_170_">
		
			<rect x="432.94" y="440.32" transform="matrix(0.4801 -0.8772 0.8772 0.4801 -169.4048 621.5375)" class="st13" width="13.36" height="26.71"/>
	</g>
</g>
<g id="K7.1.28">
	<g id="LWPOLYLINE_171_">
		
			<rect x="426.53" y="452.04" transform="matrix(0.4801 -0.8772 0.8772 0.4801 -183.0179 622.0049)" class="st13" width="13.36" height="26.71"/>
	</g>
</g>
<g id="K7.1.29">
	<g id="LWPOLYLINE_172_">
		
			<rect x="420.11" y="463.75" transform="matrix(0.4801 -0.8772 0.8772 0.4801 -196.631 622.4725)" class="st13" width="13.36" height="26.71"/>
	</g>
</g>
<g id="K7.1.30">
	<g id="LWPOLYLINE_173_">
		
			<rect x="413.7" y="475.47" transform="matrix(0.4801 -0.8772 0.8772 0.4801 -210.2441 622.9399)" class="st13" width="13.36" height="26.71"/>
	</g>
</g>
<g id="K7.1.31">
	<g id="LWPOLYLINE_174_">
		
			<rect x="407.29" y="487.19" transform="matrix(0.4801 -0.8772 0.8772 0.4801 -223.8571 623.4075)" class="st13" width="13.36" height="26.71"/>
	</g>
</g>
<g id="K7.1.32">
	<g id="LWPOLYLINE_175_">
		
			<rect x="400.88" y="498.91" transform="matrix(0.4801 -0.8772 0.8772 0.4801 -237.4702 623.875)" class="st13" width="13.36" height="26.71"/>
	</g>
</g>
<g id="K7.1.33">
	<g id="LWPOLYLINE_176_">
		
			<rect x="394.46" y="510.62" transform="matrix(0.4801 -0.8772 0.8772 0.4801 -251.0833 624.3425)" class="st13" width="13.36" height="26.71"/>
	</g>
</g>
<g id="K7.1.34">
	<g id="LWPOLYLINE_177_">
		
			<rect x="388.05" y="522.34" transform="matrix(0.4801 -0.8772 0.8772 0.4801 -264.6964 624.81)" class="st13" width="13.36" height="26.71"/>
	</g>
</g>
<g id="K7.1.35">
	<g id="LWPOLYLINE_178_">
		<polygon class="st13" points="379.81,535.15 373.79,546.15 375.1,549.32 396.19,560.86 403.24,547.97 		"/>
	</g>
</g>
<g id="K7.2.1">
	<g id="LWPOLYLINE_179_">
		<polygon class="st14" points="427.7,355.8 420.01,369.86 443.44,382.68 447.93,374.49 445.28,365.42 		"/>
	</g>
</g>
<g id="K7.2.2">
	<g id="LWPOLYLINE_180_">
		
			<rect x="421.84" y="368.77" transform="matrix(0.4801 -0.8772 0.8772 0.4801 -112.4113 574.604)" class="st14" width="13.36" height="26.71"/>
	</g>
</g>
<g id="K7.2.3">
	<g id="LWPOLYLINE_181_">
		
			<rect x="415.43" y="380.49" transform="matrix(0.4801 -0.8772 0.8772 0.4801 -126.0244 575.0715)" class="st14" width="13.36" height="26.71"/>
	</g>
</g>
<g id="K7.2.4">
	<g id="LWPOLYLINE_182_">
		
			<rect x="409.02" y="392.21" transform="matrix(0.4801 -0.8772 0.8772 0.4801 -139.6374 575.539)" class="st14" width="13.36" height="26.71"/>
	</g>
</g>
<g id="K7.2.5">
	<g id="LWPOLYLINE_183_">
		
			<rect x="402.61" y="403.93" transform="matrix(0.4801 -0.8772 0.8772 0.4801 -153.2505 576.0065)" class="st14" width="13.36" height="26.71"/>
	</g>
</g>
<g id="K7.2.6">
	<g id="LWPOLYLINE_184_">
		
			<rect x="396.19" y="415.64" transform="matrix(0.4801 -0.8772 0.8772 0.4801 -166.8636 576.474)" class="st14" width="13.36" height="26.71"/>
	</g>
</g>
<g id="K7.2.7">
	<g id="LWPOLYLINE_185_">
		
			<rect x="389.78" y="427.36" transform="matrix(0.4801 -0.8772 0.8772 0.4801 -180.4767 576.9415)" class="st14" width="13.36" height="26.71"/>
	</g>
</g>
<g id="K7.2.8">
	<g id="LWPOLYLINE_186_">
		
			<rect x="383.37" y="439.08" transform="matrix(0.4801 -0.8772 0.8772 0.4801 -194.0898 577.409)" class="st14" width="13.36" height="26.71"/>
	</g>
</g>
<g id="K7.2.9">
	<g id="LWPOLYLINE_187_">
		
			<rect x="376.96" y="450.8" transform="matrix(0.4801 -0.8772 0.8772 0.4801 -207.7029 577.8765)" class="st14" width="13.36" height="26.71"/>
	</g>
</g>
<g id="K7.2.10">
	<g id="LWPOLYLINE_188_">
		
			<rect x="370.54" y="462.51" transform="matrix(0.4801 -0.8772 0.8772 0.4801 -221.316 578.3441)" class="st14" width="13.36" height="26.71"/>
	</g>
</g>
<g id="K7.2.11">
	<g id="LWPOLYLINE_189_">
		
			<rect x="364.13" y="474.23" transform="matrix(0.4801 -0.8772 0.8772 0.4801 -234.9291 578.8115)" class="st14" width="13.36" height="26.71"/>
	</g>
</g>
<g id="K7.2.12">
	<g id="LWPOLYLINE_190_">
		
			<rect x="357.72" y="485.95" transform="matrix(0.4801 -0.8772 0.8772 0.4801 -248.5422 579.2791)" class="st14" width="13.36" height="26.71"/>
	</g>
</g>
<g id="K7.2.13">
	<g id="LWPOLYLINE_191_">
		
			<rect x="351.31" y="497.67" transform="matrix(0.4801 -0.8772 0.8772 0.4801 -262.1552 579.7465)" class="st14" width="13.36" height="26.71"/>
	</g>
</g>
<g id="K7.2.14">
	<g id="LWPOLYLINE_192_">
		
			<rect x="344.9" y="509.38" transform="matrix(0.4801 -0.8772 0.8772 0.4801 -275.7683 580.2141)" class="st14" width="13.36" height="26.71"/>
	</g>
</g>
<g id="K7.2.15">
	<g id="LWPOLYLINE_193_">
		<polygon class="st14" points="336.65,522.19 328.54,537.01 346.22,546.71 355.81,542.82 360.09,535.01 		"/>
	</g>
</g>
<g id="K7.2.16">
	<g id="LWPOLYLINE_194_">
		<polygon class="st14" points="410.12,346.19 392.55,336.57 383.48,339.22 378.36,348.59 401.79,361.41 		"/>
	</g>
</g>
<g id="K7.2.17">
	<g id="LWPOLYLINE_195_">
		
			<rect x="380.19" y="347.5" transform="matrix(0.4801 -0.8772 0.8772 0.4801 -115.4088 527.0049)" class="st14" width="13.36" height="26.71"/>
	</g>
</g>
<g id="K7.2.18">
	<g id="LWPOLYLINE_196_">
		
			<rect x="373.78" y="359.22" transform="matrix(0.4801 -0.8772 0.8772 0.4801 -129.0219 527.4725)" class="st14" width="13.36" height="26.71"/>
	</g>
</g>
<g id="K7.2.19">
	<g id="LWPOLYLINE_197_">
		
			<rect x="367.37" y="370.94" transform="matrix(0.4801 -0.8772 0.8772 0.4801 -142.635 527.9399)" class="st14" width="13.36" height="26.71"/>
	</g>
</g>
<g id="K7.2.20">
	<g id="LWPOLYLINE_198_">
		
			<rect x="360.95" y="382.65" transform="matrix(0.4801 -0.8772 0.8772 0.4801 -156.2481 528.4075)" class="st14" width="13.36" height="26.71"/>
	</g>
</g>
<g id="K7.2.21">
	<g id="LWPOLYLINE_199_">
		
			<rect x="354.54" y="394.37" transform="matrix(0.4801 -0.8772 0.8772 0.4801 -169.8612 528.8749)" class="st14" width="13.36" height="26.71"/>
	</g>
</g>
<g id="K7.2.22">
	<g id="LWPOLYLINE_200_">
		
			<rect x="348.13" y="406.09" transform="matrix(0.4801 -0.8772 0.8772 0.4801 -183.4743 529.3425)" class="st14" width="13.36" height="26.71"/>
	</g>
</g>
<g id="K7.2.23">
	<g id="LWPOLYLINE_201_">
		
			<rect x="341.72" y="417.81" transform="matrix(0.4801 -0.8772 0.8772 0.4801 -197.0874 529.8099)" class="st14" width="13.36" height="26.71"/>
	</g>
</g>
<g id="K7.2.24">
	<g id="LWPOLYLINE_202_">
		
			<rect x="335.3" y="429.52" transform="matrix(0.4801 -0.8772 0.8772 0.4801 -210.7005 530.2775)" class="st14" width="13.36" height="26.71"/>
	</g>
</g>
<g id="K7.2.25">
	<g id="LWPOLYLINE_203_">
		
			<rect x="328.89" y="441.24" transform="matrix(0.4801 -0.8772 0.8772 0.4801 -224.3135 530.7449)" class="st14" width="13.36" height="26.71"/>
	</g>
</g>
<g id="K7.2.26">
	<g id="LWPOLYLINE_204_">
		
			<rect x="322.48" y="452.96" transform="matrix(0.4801 -0.8772 0.8772 0.4801 -237.9266 531.2125)" class="st14" width="13.36" height="26.71"/>
	</g>
</g>
<g id="K7.2.27">
	<g id="LWPOLYLINE_205_">
		
			<rect x="316.07" y="464.68" transform="matrix(0.4801 -0.8772 0.8772 0.4801 -251.5397 531.68)" class="st14" width="13.36" height="26.71"/>
	</g>
</g>
<g id="K7.2.28">
	<g id="LWPOLYLINE_206_">
		
			<rect x="309.66" y="476.4" transform="matrix(0.4801 -0.8772 0.8772 0.4801 -265.1528 532.1475)" class="st14" width="13.36" height="26.71"/>
	</g>
</g>
<g id="K7.2.29">
	<g id="LWPOLYLINE_207_">
		
			<rect x="303.24" y="488.11" transform="matrix(0.4801 -0.8772 0.8772 0.4801 -278.7659 532.615)" class="st14" width="13.36" height="26.71"/>
	</g>
</g>
<g id="K7.2.30">
	<g id="LWPOLYLINE_208_">
		
			<rect x="292.11" y="502.63" transform="matrix(0.48 -0.8773 0.8773 0.48 -295.6281 533.2388)" class="st14" width="19.74" height="26.71"/>
	</g>
</g>
<g id="K7.6.1">
	<g id="LWPOLYLINE_209_">
		<polygon class="st15" points="415.1,584.35 406.09,609.61 418.07,612.67 428.89,592.9 426.31,587.14 		"/>
	</g>
</g>
<g id="K7.6.2">
	<g id="LWPOLYLINE_210_">
		<polygon class="st15" points="402.13,580.93 393.13,606.17 406.09,609.61 415.1,584.35 		"/>
	</g>
</g>
<g id="K7.6.3">
	<g id="LWPOLYLINE_211_">
		<polygon class="st15" points="393.13,606.17 380.21,602.63 389.21,577.41 402.13,580.93 		"/>
	</g>
</g>
<g id="K7.6.4">
	<g id="LWPOLYLINE_212_">
		<polygon class="st15" points="380.21,602.64 367.29,599.1 376.29,573.88 389.21,577.4 		"/>
	</g>
</g>
<g id="K7.6.5">
	<g id="LWPOLYLINE_213_">
		<polygon class="st15" points="367.33,599.01 354.41,595.47 363.4,570.25 376.32,573.77 		"/>
	</g>
</g>
<g id="K7.6.6">
	<g id="LWPOLYLINE_214_">
		<polygon class="st15" points="354.47,595.28 341.55,591.74 350.55,566.51 363.47,570.04 		"/>
	</g>
</g>
<g id="K7.6.7">
	<g id="LWPOLYLINE_215_">
		<polygon class="st15" points="350.65,566.23 337.87,562.3 328.89,587.48 341.67,591.42 		"/>
	</g>
</g>
<g id="K7.6.8">
	<g id="LWPOLYLINE_216_">
		<polygon class="st15" points="337.87,562.29 325.09,558.36 316.12,583.55 328.89,587.48 		"/>
	</g>
</g>
<g id="K7.6.9">
	<g id="LWPOLYLINE_217_">
		<polygon class="st15" points="325.13,558.26 312.35,554.33 303.37,579.51 316.15,583.45 		"/>
	</g>
</g>
<g id="K7.6.10">
	<g id="LWPOLYLINE_218_">
		<polygon class="st15" points="312.43,554.12 299.65,550.19 290.67,575.37 303.44,579.31 		"/>
	</g>
</g>
<g id="K7.6.11">
	<g id="LWPOLYLINE_219_">
		<polygon class="st15" points="299.76,549.88 286.98,545.95 278,571.14 290.77,575.07 		"/>
	</g>
</g>
<g id="K7.6.12">
	<g id="LWPOLYLINE_220_">
		<polygon class="st15" points="287.12,545.55 274.34,541.62 265.36,566.8 278.14,570.74 		"/>
	</g>
</g>
<g id="K7.6.13">
	<g id="LWPOLYLINE_221_">
		<polygon class="st15" points="252.88,561.73 240.37,557.05 249.72,532.08 262.25,536.71 		"/>
	</g>
</g>
<g id="K7.6.14">
	<g id="LWPOLYLINE_222_">
		<polygon class="st15" points="240.35,557.1 227.84,552.41 237.19,527.44 249.72,532.08 		"/>
	</g>
</g>
<g id="K7.6.15">
	<g id="LWPOLYLINE_223_">
		<polygon class="st15" points="227.86,552.36 215.35,547.68 224.7,522.71 237.23,527.34 		"/>
	</g>
</g>
<g id="K7.6.16">
	<g id="LWPOLYLINE_224_">
		<polygon class="st15" points="215.41,547.53 202.9,542.84 212.25,517.88 224.78,522.51 		"/>
	</g>
</g>
<g id="K7.6.17">
	<g id="LWPOLYLINE_225_">
		<polygon class="st15" points="202.99,542.6 190.48,537.91 199.83,512.94 212.36,517.58 		"/>
	</g>
</g>
<g id="K7.6.18">
	<g id="LWPOLYLINE_226_">
		<polygon class="st15" points="190.61,537.56 178.1,532.88 187.45,507.91 199.98,512.55 		"/>
	</g>
</g>
<g id="K7.6.19">
	<g id="LWPOLYLINE_227_">
		<polygon class="st15" points="178.27,532.43 165.76,527.75 175.11,502.78 187.64,507.42 		"/>
	</g>
</g>
<g id="K7.6.20">
	<g id="LWPOLYLINE_228_">
		<polygon class="st15" points="165.96,527.2 153.46,522.52 162.81,497.55 175.33,502.19 		"/>
	</g>
</g>
<g id="K7.6.21">
	<g id="LWPOLYLINE_229_">
		<polygon class="st15" points="153.62,522.08 141.11,517.39 150.46,492.42 162.99,497.06 		"/>
	</g>
</g>
<g id="K7.6.22">
	<g id="LWPOLYLINE_230_">
		<polygon class="st15" points="128.37,513.33 137.76,488.26 150.46,492.42 141.11,517.39 		"/>
	</g>
</g>
<g id="K7.6.23">
	<g id="LWPOLYLINE_231_">
		<polygon class="st15" points="128.37,513.33 115.46,509.73 121.2,483.62 137.76,488.26 		"/>
	</g>
</g>
<g id="K7.6.24">
	<g id="LWPOLYLINE_232_">
		<polygon class="st15" points="121.2,483.62 108.2,480.58 102.45,506.67 115.46,509.73 		"/>
	</g>
</g>
<g id="K7.6.25">
	<g id="LWPOLYLINE_233_">
		<polygon class="st15" points="108.2,480.58 95.08,478.02 89.33,504.14 102.45,506.67 		"/>
	</g>
</g>
<g id="K7.6.26">
	<g id="LWPOLYLINE_234_">
		<polygon class="st15" points="95.08,478.02 81.86,475.96 76.09,502.14 89.33,504.14 		"/>
	</g>
</g>
<g id="K7.6.27">
	<g id="LWPOLYLINE_235_">
		<polygon class="st15" points="81.86,475.96 67.26,474.28 61.55,479.17 60.07,500.46 76.09,502.14 		"/>
	</g>
</g>
<g id="K7.6.28">
	<g id="LWPOLYLINE_236_">
		<polygon class="st15" points="410.12,627.2 399.41,646.77 391.81,650.05 381.7,647.36 389.65,621.83 		"/>
	</g>
</g>
<g id="K7.6.29">
	<g id="LWPOLYLINE_237_">
		<polygon class="st15" points="389.65,621.83 376.75,618.31 368.8,643.83 381.7,647.36 		"/>
	</g>
</g>
<g id="K7.6.30">
	<g id="LWPOLYLINE_238_">
		<polygon class="st15" points="368.8,643.83 376.75,618.31 363.89,614.69 355.94,640.2 		"/>
	</g>
</g>
<g id="K7.6.31">
	<g id="LWPOLYLINE_239_">
		<polygon class="st15" points="355.94,640.2 343.12,636.47 351.06,610.96 363.89,614.69 		"/>
	</g>
</g>
<g id="K7.6.32">
	<g id="LWPOLYLINE_240_">
		<polygon class="st15" points="351.06,610.96 338.26,607.14 330.32,632.65 343.12,636.47 		"/>
	</g>
</g>
<g id="K7.6.33">
	<g id="LWPOLYLINE_241_">
		<polygon class="st15" points="338.26,607.14 325.46,603.32 317.52,628.82 330.32,632.65 		"/>
	</g>
</g>
<g id="K7.6.34">
	<g id="LWPOLYLINE_242_">
		<polygon class="st15" points="325.46,603.31 312.67,599.49 304.72,625 317.52,628.82 		"/>
	</g>
</g>
<g id="K7.6.35">
	<g id="LWPOLYLINE_243_">
		<polygon class="st15" points="312.8,599.04 300.01,595.22 292.06,620.73 304.86,624.55 		"/>
	</g>
</g>
<g id="K7.6.36">
	<g id="LWPOLYLINE_244_">
		<polygon class="st15" points="300.05,595.07 287.25,591.25 279.31,616.75 292.1,620.58 		"/>
	</g>
</g>
<g id="K7.6.37">
	<g id="LWPOLYLINE_245_">
		<polygon class="st15" points="287.38,590.85 274.73,586.52 266.78,612.04 279.43,616.36 		"/>
	</g>
</g>
<g id="K7.6.38">
	<g id="LWPOLYLINE_246_">
		<polygon class="st15" points="274.73,586.52 259.6,581.2 251.65,606.73 266.56,612.04 		"/>
	</g>
</g>
<g id="K7.6.39">
	<g id="LWPOLYLINE_247_">
		<polygon class="st15" points="250.33,577.87 235.29,572.32 226.14,597.42 241.19,602.91 		"/>
	</g>
</g>
<g id="K7.6.40">
	<g id="LWPOLYLINE_248_">
		<polygon class="st15" points="222.8,567.59 213.64,592.69 226.14,597.42 235.29,572.32 		"/>
	</g>
</g>
<g id="K7.6.41">
	<g id="LWPOLYLINE_249_">
		<polygon class="st15" points="210.31,562.86 201.15,587.96 213.64,592.69 222.8,567.59 		"/>
	</g>
</g>
<g id="K7.6.42">
	<g id="LWPOLYLINE_250_">
		<polygon class="st15" points="197.85,558.04 188.69,583.13 201.19,587.86 210.34,562.76 		"/>
	</g>
</g>
<g id="K7.6.43">
	<g id="LWPOLYLINE_251_">
		<polygon class="st15" points="197.92,557.84 185.54,552.81 176.37,577.93 188.76,582.94 		"/>
	</g>
</g>
<g id="K7.6.44">
	<g id="LWPOLYLINE_252_">
		<polygon class="st15" points="185.54,552.81 173.15,547.79 163.99,572.9 176.37,577.92 		"/>
	</g>
</g>
<g id="K7.6.45">
	<g id="LWPOLYLINE_253_">
		<polygon class="st15" points="173.19,547.69 160.8,542.67 151.64,567.78 164.02,572.8 		"/>
	</g>
</g>
<g id="K7.6.46">
	<g id="LWPOLYLINE_254_">
		<polygon class="st15" points="151.7,567.6 139.38,562.41 148.54,537.3 160.88,542.46 		"/>
	</g>
</g>
<g id="K7.6.47">
	<g id="LWPOLYLINE_255_">
		<polygon class="st15" points="134.91,532.27 148.54,537.3 139.38,562.41 126.83,557.83 		"/>
	</g>
</g>
<g id="K7.6.48">
	<g id="LWPOLYLINE_256_">
		<polygon class="st15" points="121.4,527.98 134.91,532.27 126.86,557.75 114.52,553.8 		"/>
	</g>
</g>
<g id="K7.6.49">
	<g id="LWPOLYLINE_257_">
		<polygon class="st15" points="107.71,524.31 102.01,550.42 114.52,553.8 121.4,527.98 		"/>
	</g>
</g>
<g id="K7.6.50">
	<g id="LWPOLYLINE_258_">
		<polygon class="st15" points="107.71,524.31 93.87,521.27 89.37,547.61 102.01,550.42 		"/>
	</g>
</g>
<g id="K7.6.51">
	<g id="LWPOLYLINE_259_">
		<polygon class="st15" points="89.37,547.61 93.87,521.27 79.9,518.88 76.61,545.38 		"/>
	</g>
</g>
<g id="K7.6.52">
	<g id="LWPOLYLINE_260_">
		<polygon class="st15" points="76.61,545.38 79.9,518.86 58.96,516.46 57.39,539.12 61.11,543.46 		"/>
	</g>
</g>
<g id="K7.5.1">
	<g id="LWPOLYLINE_261_">
		<polyline class="st16" points="399.01,674 383.49,669.96 375.7,695.53 391.22,699.58 399.01,674 		"/>
	</g>
</g>
<g id="K7.5.2">
	<g id="LWPOLYLINE_262_">
		<polygon class="st16" points="383.49,669.96 368,665.78 360.22,691.34 375.7,695.53 		"/>
	</g>
</g>
<g id="K7.5.3">
	<g id="LWPOLYLINE_263_">
		<polygon class="st16" points="368,665.78 352.56,661.46 344.78,687.02 360.22,691.34 		"/>
	</g>
</g>
<g id="K7.5.4">
	<g id="LWPOLYLINE_264_">
		<polygon class="st16" points="352.56,661.46 337.17,657 329.38,682.56 344.78,687.02 		"/>
	</g>
</g>
<g id="K7.5.5">
	<g id="LWPOLYLINE_265_">
		<polygon class="st16" points="337.17,657 321.83,652.33 314.03,677.95 329.38,682.56 		"/>
	</g>
</g>
<g id="K7.5.6">
	<g id="LWPOLYLINE_266_">
		<polygon class="st16" points="321.81,652.4 306.62,647.69 298.6,673.18 314.05,677.88 		"/>
	</g>
</g>
<g id="K7.5.7">
	<g id="LWPOLYLINE_267_">
		<polygon class="st16" points="306.62,647.69 291.23,642.78 283.45,668.34 298.66,672.97 		"/>
	</g>
</g>
<g id="K7.5.8">
	<g id="LWPOLYLINE_268_">
		<polygon class="st16" points="291.23,642.78 276.01,637.75 268.22,663.32 283.45,668.34 		"/>
	</g>
</g>
<g id="K7.5.9">
	<g id="LWPOLYLINE_269_">
		<polygon class="st16" points="276.01,637.75 260.82,632.59 253.03,658.16 268.22,663.32 		"/>
	</g>
</g>
<g id="K7.5.10">
	<g id="LWPOLYLINE_270_">
		<polygon class="st16" points="260.82,632.59 243.16,626.39 235.37,651.98 253,658.26 		"/>
	</g>
</g>
<g id="K7.5.11">
	<g id="LWPOLYLINE_271_">
		<polygon class="st16" points="233.64,622.96 216.05,616.57 205.96,641.2 223.5,647.7 		"/>
	</g>
</g>
<g id="K7.5.12">
	<g id="LWPOLYLINE_272_">
		<polygon class="st16" points="216.05,616.57 201.1,610.76 190.98,635.49 205.96,641.2 		"/>
	</g>
</g>
<g id="K7.5.13">
	<g id="LWPOLYLINE_273_">
		<polygon class="st16" points="201.1,610.76 186.18,604.92 176.05,629.64 190.98,635.49 		"/>
	</g>
</g>
<g id="K7.5.14">
	<g id="LWPOLYLINE_274_">
		<polygon class="st16" points="186.18,604.92 171.31,598.94 161.18,623.66 176.05,629.64 		"/>
	</g>
</g>
<g id="K7.5.15">
	<g id="LWPOLYLINE_275_">
		<polygon class="st16" points="171.31,598.94 156.49,592.82 146.36,617.55 161.2,623.62 		"/>
	</g>
</g>
<g id="K7.5.16">
	<g id="LWPOLYLINE_276_">
		<polygon class="st16" points="146.36,617.55 131.6,611.3 141.73,586.57 156.49,592.82 		"/>
	</g>
</g>
<g id="K7.5.17">
	<g id="LWPOLYLINE_277_">
		<polygon class="st16" points="116.77,605.22 131.48,611.25 141.73,586.57 126.9,580.49 		"/>
	</g>
</g>
<g id="K7.5.18">
	<g id="LWPOLYLINE_278_">
		<polygon class="st16" points="105.67,573.49 126.93,580.5 116.77,605.22 101.54,600.11 		"/>
	</g>
</g>
<g id="K7.5.19">
	<g id="LWPOLYLINE_279_">
		<polygon class="st16" points="90.05,569.58 105.71,573.5 101.54,600.11 85.95,596.04 		"/>
	</g>
</g>
<g id="K7.5.20">
	<g id="LWPOLYLINE_280_">
		<polygon class="st16" points="74.29,566.64 90.05,569.58 85.95,596.04 70.2,593.04 		"/>
	</g>
</g>
<g id="K7.5.21">
	<g id="LWPOLYLINE_281_">
		<polygon class="st16" points="55.71,564.44 51.6,590.91 70.2,593.04 74.29,566.64 		"/>
	</g>
</g>
<g id="K7.7.1">
	<g id="LWPOLYLINE_282_">
		
			<rect x="499.33" y="331.49" transform="matrix(0.4801 -0.8772 0.8772 0.4801 -28.9145 624.8902)" class="st17" width="26.71" height="10.69"/>
	</g>
</g>
<g id="K7.7.2">
	<g id="LWPOLYLINE_283_">
		
			<rect x="491.14" y="328.34" transform="matrix(0.4801 -0.8772 0.8772 0.4801 -29.2395 615.361)" class="st17" width="26.71" height="8.01"/>
	</g>
</g>
<g id="K7.7.3">
	<g id="LWPOLYLINE_284_">
		
			<rect x="484.1" y="324.49" transform="matrix(0.4801 -0.8772 0.8772 0.4801 -29.52 607.1931)" class="st17" width="26.71" height="8.01"/>
	</g>
</g>
<g id="K7.7.4">
	<g id="LWPOLYLINE_285_">
		
			<rect x="477.07" y="320.64" transform="matrix(0.4801 -0.8772 0.8772 0.4801 -29.8005 599.0253)" class="st17" width="26.71" height="8.01"/>
	</g>
</g>
<g id="K7.7.5">
	<g id="LWPOLYLINE_286_">
		
			<rect x="465.36" y="314.23" transform="matrix(0.4801 -0.8772 0.8772 0.4801 -30.268 585.4122)" class="st17" width="26.71" height="8.01"/>
	</g>
</g>
<g id="K7.7.6">
	<g id="LWPOLYLINE_287_">
		
			<rect x="458.32" y="310.38" transform="matrix(0.4801 -0.8772 0.8772 0.4801 -30.5488 577.2357)" class="st17" width="26.71" height="8.01"/>
	</g>
</g>
<g id="K7.7.7">
	<g id="LWPOLYLINE_288_">
		
			<rect x="451.29" y="306.53" transform="matrix(0.4801 -0.8772 0.8772 0.4801 -30.8293 569.0679)" class="st17" width="26.71" height="8.01"/>
	</g>
</g>
<g id="K7.7.8">
	<g id="LWPOLYLINE_289_">
		
			<rect x="444.26" y="302.69" transform="matrix(0.4801 -0.8772 0.8772 0.4801 -31.1098 560.9)" class="st17" width="26.71" height="8.01"/>
	</g>
</g>
<g id="K7.7.9">
	<g id="LWPOLYLINE_290_">
		
			<rect x="437.23" y="298.84" transform="matrix(0.4801 -0.8772 0.8772 0.4801 -31.3903 552.7322)" class="st17" width="26.71" height="8.01"/>
	</g>
</g>
<g id="K7.7.10">
	<g id="LWPOLYLINE_291_">
		
			<rect x="430.2" y="294.99" transform="matrix(0.4801 -0.8772 0.8772 0.4801 -31.6668 544.5642)" class="st17" width="26.71" height="8.01"/>
	</g>
</g>
<g id="K7.7.11">
	<g id="LWPOLYLINE_292_">
		
			<rect x="423.17" y="291.14" transform="matrix(0.4801 -0.8772 0.8772 0.4801 -31.9513 536.3965)" class="st17" width="26.71" height="8.01"/>
	</g>
</g>
<g id="K7.7.12">
	<g id="LWPOLYLINE_293_">
		
			<rect x="416.14" y="287.3" transform="matrix(0.4801 -0.8772 0.8772 0.4801 -32.2318 528.2286)" class="st17" width="26.71" height="8.01"/>
	</g>
</g>
<g id="K7.7.13">
	<g id="LWPOLYLINE_294_">
		
			<rect x="409.11" y="283.45" transform="matrix(0.4801 -0.8772 0.8772 0.4801 -32.5083 520.0606)" class="st17" width="26.71" height="8.01"/>
	</g>
</g>
<g id="K7.7.14">
	<g id="LWPOLYLINE_295_">
		
			<rect x="402.07" y="279.6" transform="matrix(0.4801 -0.8772 0.8772 0.4801 -32.7928 511.8929)" class="st17" width="26.71" height="8.01"/>
	</g>
</g>
<g id="K7.7.38">
	<g id="LWPOLYLINE_296_">
		
			<rect x="431.44" y="326.11" transform="matrix(0.4801 -0.8772 0.8772 0.4801 -58.3279 561.8348)" class="st17" width="26.71" height="8.01"/>
	</g>
</g>
<g id="K7.7.39">
	<g id="LWPOLYLINE_297_">
		
			<rect x="424.41" y="322.26" transform="matrix(0.4801 -0.8772 0.8772 0.4801 -58.6044 553.6667)" class="st17" width="26.71" height="8.01"/>
	</g>
</g>
<g id="K7.7.40">
	<g id="LWPOLYLINE_298_">
		
			<rect x="417.37" y="318.43" transform="matrix(0.4801 -0.8772 0.8772 0.4801 -58.8969 545.4993)" class="st17" width="26.71" height="8.01"/>
	</g>
</g>
<g id="K7.7.41">
	<g id="LWPOLYLINE_299_">
		
			<rect x="410.34" y="314.58" transform="matrix(0.4801 -0.8772 0.8772 0.4801 -59.1774 537.3315)" class="st17" width="26.71" height="8.01"/>
	</g>
</g>
<g id="K7.7.42">
	<g id="LWPOLYLINE_300_">
		
			<rect x="403.32" y="310.72" transform="matrix(0.4801 -0.8772 0.8772 0.4801 -59.4459 529.1632)" class="st17" width="26.71" height="8.01"/>
	</g>
</g>
<g id="K7.7.43">
	<g id="LWPOLYLINE_301_">
		
			<rect x="396.28" y="306.89" transform="matrix(0.4801 -0.8772 0.8772 0.4801 -59.7385 520.9958)" class="st17" width="26.71" height="8.01"/>
	</g>
</g>
<g id="K7.7.44">
	<g id="LWPOLYLINE_302_">
		
			<rect x="389.25" y="303.04" transform="matrix(0.4801 -0.8772 0.8772 0.4801 -60.019 512.8279)" class="st17" width="26.71" height="8.01"/>
	</g>
</g>
<g id="K7.7.37">
	<g id="LWPOLYLINE_303_">
		<polygon class="st17" points="441.89,343.77 452.44,349.55 463.32,346.37 472.3,329.96 454.71,320.34 		"/>
	</g>
</g>
</svg>
